<?xml version="1.0" encoding="utf-8"?>
<!-- Generator: Adobe Illustrator 18.1.0, SVG Export Plug-In . SVG Version: 6.00 Build 0)  -->
<svg version="1.1" xmlns="http://www.w3.org/2000/svg" xmlns:xlink="http://www.w3.org/1999/xlink" x="0px" y="0px"
	 viewBox="0 0 462.5 194.9" enable-background="new 0 0 462.5 194.9" xml:space="preserve">
<g id="CircleOne">
	<g>
		<path fill="#E6E7E8" d="M106.9,161.1c-32.6,0-61.2-19.9-71.3-49.5c-6-17.6-4.7-36.4,3.7-53c9-17.9,24.8-31.1,44.6-37.2
			c7.5-2.3,15.2-3.5,23-3.5c32.6,0,61.2,19.9,71.3,49.5c6,17.6,4.7,36.4-3.7,53c-9,17.9-24.8,31.1-44.6,37.2
			C122.5,159.9,114.7,161.1,106.9,161.1z"/>
	</g>
	<g>
		<g>
			
				<linearGradient id="SVGID_1_" gradientUnits="userSpaceOnUse" x1="53.7001" y1="-70.7744" x2="204.2001" y2="-70.7744" gradientTransform="matrix(0.9514 -0.3079 0.3079 0.9514 7.2777 195.935)">
				<stop  offset="0" style="stop-color:#004C56"/>
				<stop  offset="0.2083" style="stop-color:#2F6668"/>
				<stop  offset="0.3503" style="stop-color:#336969"/>
				<stop  offset="0.4646" style="stop-color:#9DB5BF"/>
				<stop  offset="0.6565" style="stop-color:#A8BCC5;stop-opacity:0.3435"/>
				<stop  offset="0.846" style="stop-color:#BECBD1;stop-opacity:0"/>
				<stop  offset="1" style="stop-color:#D6DDDF;stop-opacity:0"/>
			</linearGradient>
			<path fill="url(#SVGID_1_)" d="M108.2,159.9c-32.9,0-61.8-19.7-72-49c-6-17.4-4.7-36.1,3.7-52.6C49,40.5,65,27.4,85,21.3
				c7.5-2.3,15.4-3.4,23.2-3.4c32.9,0,61.8,19.7,72,49c6,17.4,4.7,36.1-3.7,52.6c-9.1,17.8-25.1,30.9-45.1,36.9
				C123.8,158.7,116,159.9,108.2,159.9z M108.2,27.9c-6.9,0-13.7,1-20.3,3c-17.4,5.2-31.2,16.6-39,31.9c-7.2,14.1-8.3,30-3.2,44.8
				c8.8,25.3,33.9,42.3,62.5,42.3c6.9,0,13.7-1,20.3-3c17.4-5.2,31.2-16.6,39-31.9c7.2-14.1,8.3-30,3.2-44.8
				C161.9,44.9,136.8,27.9,108.2,27.9z"/>
		</g>
		<g>
			
				<linearGradient id="SVGID_2_" gradientUnits="userSpaceOnUse" x1="58.6515" y1="-70.7737" x2="199.2487" y2="-70.7737" gradientTransform="matrix(0.9514 -0.3079 0.3079 0.9514 7.2777 195.935)">
				<stop  offset="0" style="stop-color:#78797C"/>
				<stop  offset="0.1931" style="stop-color:#78797C"/>
				<stop  offset="0.3286" style="stop-color:#808285"/>
				<stop  offset="0.6348" style="stop-color:#B4C4CB;stop-opacity:0.6"/>
				<stop  offset="0.8845" style="stop-color:#C6D1D5;stop-opacity:0"/>
				<stop  offset="1" style="stop-color:#D6DDDF;stop-opacity:0"/>
			</linearGradient>
			<path fill="url(#SVGID_2_)" d="M108.2,155.2c-30.7,0-57.7-18.4-67.2-45.8c-5.6-16.2-4.4-33.7,3.5-49.1
				c8.5-16.6,23.4-28.8,42.1-34.5c7.1-2.1,14.4-3.2,21.7-3.2c30.7,0,57.7,18.4,67.2,45.8c5.6,16.2,4.4,33.7-3.5,49.1
				c-8.5,16.6-23.4,28.8-42.1,34.5C122.8,154.1,115.5,155.2,108.2,155.2z M108.2,30.6c-6.6,0-13.1,1-19.4,2.9
				c-16.6,5-29.8,15.8-37.3,30.5c-6.9,13.4-7.9,28.6-3,42.8c8.4,24.2,32.4,40.4,59.7,40.4c6.6,0,13.1-1,19.4-2.9
				c16.6-5,29.8-15.8,37.3-30.5c6.9-13.4,7.9-28.6,3-42.8C159.5,46.9,135.5,30.6,108.2,30.6z"/>
		</g>
	</g>
</g>
<g id="Grain">
	<g>
		<g>
			<linearGradient id="SVGID_3_" gradientUnits="userSpaceOnUse" x1="58.7572" y1="112.2569" x2="172.2467" y2="75.5297">
				<stop  offset="0" style="stop-color:#004C56"/>
				<stop  offset="0.371" style="stop-color:#336969"/>
				<stop  offset="0.5861" style="stop-color:#9DB5BF"/>
				<stop  offset="0.6894" style="stop-color:#B4C4CB;stop-opacity:0.6"/>
				<stop  offset="0.8154" style="stop-color:#D6DDDF;stop-opacity:0"/>
			</linearGradient>
			<path fill="url(#SVGID_3_)" d="M58.8,111c0,0-0.1-0.3-0.3-1c-0.2-0.7-0.6-1.6-0.9-2.9c-0.7-2.6-1.5-6.4-1.7-11.3
				c-0.2-4.9,0.3-11,2.3-17.6c2-6.6,5.7-13.7,11.3-20.1c5.6-6.4,13.3-12,22.4-15.6c9.1-3.6,19.6-5.2,30.1-4
				c10.6,1.1,21.2,5,30.2,11.7c9,6.5,16.3,15.9,20,26.6c0.9,2.7,1.7,5.4,2.2,8.2c0.5,2.8,0.8,5.6,0.8,8.5c0,2.8-0.2,5.7-0.6,8.5
				c-0.4,2.8-1.1,5.5-1.9,8.2c-3.4,10.7-10.2,20-18.6,26.6c-2.1,1.7-4.3,3.2-6.5,4.5c-2.3,1.3-4.6,2.5-6.9,3.5
				c-2.4,1-4.7,1.9-7.2,2.6c-2.4,0.7-4.8,1.3-7.2,1.7c-9.7,1.7-19.1,0.9-27.3-1.3c-8.2-2.3-15.2-6-20.8-10.1
				c-5.5-4.2-9.6-8.7-12.4-12.8c-2.9-4-4.6-7.6-5.6-10c-0.6-1.2-0.9-2.2-1.1-2.8C58.9,111.3,58.8,111,58.8,111z M58.9,110.9
				c0,0,0.1,0.3,0.4,1c0.3,0.6,0.6,1.6,1.1,2.8c1,2.4,2.8,5.9,5.7,9.9c1.4,2,3.2,4.1,5.3,6.2c2.1,2.1,4.5,4.3,7.3,6.3
				c5.5,4,12.5,7.6,20.7,9.7c4.1,1,8.4,1.7,13,1.9c4.5,0.2,9.2,0,14-0.9c2.4-0.4,4.7-1,7.1-1.7c2.3-0.7,4.7-1.5,7-2.6
				c2.3-1,4.6-2.2,6.8-3.5c2.2-1.3,4.4-2.8,6.4-4.4c8.2-6.5,15-15.6,18.4-26.1c1.7-5.2,2.6-10.8,2.6-16.4c0-2.8-0.3-5.6-0.7-8.4
				c-0.5-2.8-1.2-5.5-2.1-8.2c-0.9-2.6-2-5.2-3.3-7.7c-1.3-2.5-2.8-4.8-4.5-7.1c-1.7-2.2-3.5-4.3-5.5-6.3c-2-1.9-4.1-3.8-6.3-5.4
				c-9-6.6-19.6-10.3-30.1-11.3c-10.5-1.1-20.8,0.6-29.8,4.2c-4.5,1.8-8.6,4.1-12.3,6.7c-3.7,2.6-7,5.5-9.8,8.7
				c-5.6,6.3-9.4,13.2-11.5,19.7c-1.1,3.3-1.7,6.4-2.1,9.4c-0.2,1.5-0.3,2.9-0.4,4.3c0,1.4-0.1,2.7,0,3.9c0.2,4.9,1,8.8,1.7,11.3
				c0.3,1.3,0.6,2.2,0.8,2.9C58.8,110.6,58.9,110.9,58.9,110.9z"/>
		</g>
	</g>
	<linearGradient id="SVGID_4_" gradientUnits="userSpaceOnUse" x1="46.8363" y1="93.4322" x2="52.4907" y2="83.6384">
		<stop  offset="0" style="stop-color:#004C56"/>
		<stop  offset="0.371" style="stop-color:#336969"/>
		<stop  offset="0.6765" style="stop-color:#9DB5BF"/>
		<stop  offset="0.8082" style="stop-color:#B4C4CB;stop-opacity:0.6"/>
		<stop  offset="1" style="stop-color:#D6DDDF;stop-opacity:0"/>
	</linearGradient>
	<path fill="url(#SVGID_4_)" d="M45.9,79.8c0,0,13.7,9.6,8.5,15.5C54.4,95.4,44.4,99.6,45.9,79.8z"/>
	<linearGradient id="SVGID_5_" gradientUnits="userSpaceOnUse" x1="51.1463" y1="80.1236" x2="57.9147" y2="68.4003">
		<stop  offset="0" style="stop-color:#004C56"/>
		<stop  offset="0.371" style="stop-color:#336969"/>
		<stop  offset="0.6765" style="stop-color:#9DB5BF"/>
		<stop  offset="0.8082" style="stop-color:#B4C4CB;stop-opacity:0.6"/>
		<stop  offset="1" style="stop-color:#D6DDDF;stop-opacity:0"/>
	</linearGradient>
	<path fill="url(#SVGID_5_)" d="M53.2,65.7c0,0,8.8,12.7,2.5,16.2C55.7,81.9,45.7,82.4,53.2,65.7z"/>
	<linearGradient id="SVGID_6_" gradientUnits="userSpaceOnUse" x1="58.0857" y1="67.0107" x2="65.7781" y2="53.687">
		<stop  offset="0" style="stop-color:#004C56"/>
		<stop  offset="0.371" style="stop-color:#336969"/>
		<stop  offset="0.6765" style="stop-color:#9DB5BF"/>
		<stop  offset="0.8082" style="stop-color:#B4C4CB;stop-opacity:0.6"/>
		<stop  offset="1" style="stop-color:#D6DDDF;stop-opacity:0"/>
	</linearGradient>
	<path fill="url(#SVGID_6_)" d="M62.9,52c0,0,4.7,14.7-2.5,16.2C60.5,68.2,50.8,65.7,62.9,52z"/>
	<linearGradient id="SVGID_7_" gradientUnits="userSpaceOnUse" x1="67.4839" y1="56.6492" x2="73.0606" y2="46.9902">
		<stop  offset="0" style="stop-color:#004C56"/>
		<stop  offset="0.371" style="stop-color:#336969"/>
		<stop  offset="0.6765" style="stop-color:#9DB5BF"/>
		<stop  offset="0.8082" style="stop-color:#B4C4CB;stop-opacity:0.6"/>
		<stop  offset="1" style="stop-color:#D6DDDF;stop-opacity:0"/>
	</linearGradient>
	<path fill="url(#SVGID_7_)" d="M72.5,46.7c0,0,0.8,10.6-4.2,10.5C68.3,57.1,62.2,53.9,72.5,46.7z"/>
	<linearGradient id="SVGID_8_" gradientUnits="userSpaceOnUse" x1="69.9458" y1="62.5814" x2="74.572" y2="54.5687">
		<stop  offset="0" style="stop-color:#004C56"/>
		<stop  offset="0.371" style="stop-color:#336969"/>
		<stop  offset="0.6765" style="stop-color:#9DB5BF"/>
		<stop  offset="0.8082" style="stop-color:#B4C4CB;stop-opacity:0.6"/>
		<stop  offset="1" style="stop-color:#D6DDDF;stop-opacity:0"/>
	</linearGradient>
	<path fill="url(#SVGID_8_)" d="M77.9,56.5c0,0-10.6-1-10.5,4C67.3,60.4,70.4,66.6,77.9,56.5z"/>
	<linearGradient id="SVGID_9_" gradientUnits="userSpaceOnUse" x1="57.773" y1="99.8932" x2="65.3213" y2="86.8192">
		<stop  offset="0" style="stop-color:#004C56"/>
		<stop  offset="0.371" style="stop-color:#336969"/>
		<stop  offset="0.6765" style="stop-color:#9DB5BF"/>
		<stop  offset="0.8082" style="stop-color:#B4C4CB;stop-opacity:0.6"/>
		<stop  offset="1" style="stop-color:#D6DDDF;stop-opacity:0"/>
	</linearGradient>
	<path fill="url(#SVGID_9_)" d="M67.6,88.2c0,0-14.4,4-11.8,10.5C55.8,98.7,63,105.2,67.6,88.2z"/>
	<linearGradient id="SVGID_10_" gradientUnits="userSpaceOnUse" x1="62.2883" y1="74.3811" x2="68.8695" y2="62.9821">
		<stop  offset="0" style="stop-color:#004C56"/>
		<stop  offset="0.371" style="stop-color:#336969"/>
		<stop  offset="0.6765" style="stop-color:#9DB5BF"/>
		<stop  offset="0.8082" style="stop-color:#B4C4CB;stop-opacity:0.6"/>
		<stop  offset="1" style="stop-color:#D6DDDF;stop-opacity:0"/>
	</linearGradient>
	<path fill="url(#SVGID_10_)" d="M71.3,64.4c0,0-12.9,2.8-11,8.7C60.4,73.1,66.3,79.3,71.3,64.4z"/>
	<linearGradient id="SVGID_11_" gradientUnits="userSpaceOnUse" x1="58.3459" y1="87.2552" x2="65.9587" y2="74.0693">
		<stop  offset="0" style="stop-color:#004C56"/>
		<stop  offset="0.371" style="stop-color:#336969"/>
		<stop  offset="0.6765" style="stop-color:#9DB5BF"/>
		<stop  offset="0.8082" style="stop-color:#B4C4CB;stop-opacity:0.6"/>
		<stop  offset="1" style="stop-color:#D6DDDF;stop-opacity:0"/>
	</linearGradient>
	<path fill="url(#SVGID_11_)" d="M68.8,75.7c0,0-15,3.2-12.7,10.1C56.1,85.8,63,92.9,68.8,75.7z"/>
	<g>
		<linearGradient id="SVGID_12_" gradientUnits="userSpaceOnUse" x1="66.7095" y1="133.2836" x2="104.4178" y2="67.971">
			<stop  offset="0" style="stop-color:#004C56"/>
			<stop  offset="0.371" style="stop-color:#336969"/>
			<stop  offset="0.6765" style="stop-color:#9DB5BF"/>
			<stop  offset="0.8082" style="stop-color:#B4C4CB"/>
			<stop  offset="1" style="stop-color:#D6DDDF"/>
		</linearGradient>
		<path fill="url(#SVGID_12_)" d="M102.6,147.4c0,0-0.5,0-1.4-0.2c-0.9-0.1-2.3-0.3-4-0.7c-1.7-0.4-3.7-0.8-6-1.6
			c-2.3-0.7-4.9-1.7-7.6-3c-2.7-1.3-5.6-2.8-8.4-4.8c-2.8-2-5.7-4.3-8.2-7.2c-2.6-2.8-5-6-6.9-9.5c-1.9-3.5-3.4-7.4-4.4-11.3
			c-0.5-2-0.8-4-1.2-6c-0.1-1-0.2-2-0.3-3l-0.1-1.5l0-1.5c0-1-0.1-2-0.1-3c0-1,0.1-2,0.1-2.9c0.1-1.9,0.2-3.9,0.5-5.8
			c0.6-3.7,1.5-7.3,2.7-10.5c1.2-3.3,2.6-6.2,4.1-8.8c0.8-1.3,1.6-2.5,2.3-3.6c0.9-1.1,1.6-2.1,2.4-3c0.8-0.9,1.6-1.7,2.4-2.5
			c0.8-0.7,1.5-1.3,2.2-1.9c0.3-0.3,0.6-0.5,0.9-0.8c0.3-0.2,0.6-0.4,0.9-0.6c0.6-0.4,1-0.7,1.4-0.9c0.8-0.5,1.2-0.8,1.2-0.8
			s-0.4,0.3-1.1,1c-0.3,0.3-0.8,0.7-1.3,1.1c-0.2,0.2-0.5,0.5-0.8,0.7c-0.3,0.3-0.5,0.6-0.8,0.9c-0.6,0.6-1.2,1.3-1.9,2.1
			c-0.6,0.8-1.3,1.7-2,2.6c-0.7,1-1.3,2-2,3.1c-0.6,1.2-1.3,2.4-1.9,3.6c-1.2,2.6-2.3,5.5-3.3,8.7c-0.9,3.2-1.6,6.6-2,10.1
			c-0.2,1.8-0.3,3.5-0.3,5.4c0,0.9,0,1.8,0,2.8c0,0.9,0.1,1.9,0.1,2.8l0.1,1.4l0.2,1.4c0.1,0.9,0.2,1.9,0.3,2.8
			c0.3,1.9,0.6,3.7,1.2,5.5c0.9,3.7,2.2,7.2,3.9,10.5c1.7,3.3,3.8,6.3,6.1,9c2.3,2.7,4.8,5.1,7.4,7.1c2.6,2,5.2,3.8,7.7,5.2
			c5,2.9,9.6,4.7,12.8,5.8c1.6,0.6,2.9,1,3.8,1.2C102.2,147.3,102.6,147.4,102.6,147.4z"/>
	</g>
	<g>
		<g>
			<path fill="#FFFFFF" d="M116.2,69.9c-1,0.8-2.1,1.6-3.5,2.3c0,0,0,0,0.1,0.1c1.4-0.8,2.6-1.5,3.6-2.4c1.9-1.5,3.5-3.4,4.3-5.5
				C119.7,66.5,118,68.4,116.2,69.9z M121.3,54.3c-0.1,0-0.2,0-0.2,0c0.1,0.1,0.1,0.1,0.2,0.2c0.1,0,0.2,0,0.2,0
				C121.5,54.5,121.4,54.4,121.3,54.3z M88.8,43c3.1,0.1,6.7,0.4,10.3,1C95.5,43.3,92,43.1,88.8,43z"/>
		</g>
		<g>
			<path fill="#FFFFFF" d="M143.5,64.7c0,0.1,0,0.2,0.2,0.2c0.2,0,0.3,0.1,0.4,0.2C143.9,64.9,143.7,64.7,143.5,64.7z M112.7,72.1
				C112.7,72.1,112.7,72.1,112.7,72.1L112.7,72.1C112.7,72.1,112.7,72.1,112.7,72.1z M111.3,72.5c-1.7-1.1-4-2.4-5.7-4
				c1.8,1.7,4.1,3.1,5.9,4.2c0,0,0.1,0,0.1,0.1c0,0,0,0,0.1,0C111.6,72.6,111.4,72.6,111.3,72.5z M135.4,53.2c-1.6,0-7.7-0.1-14,1.1
				c-0.1,0-0.2,0-0.2,0c0.1,0.1,0.1,0.1,0.2,0.2c0.1,0,0.2,0,0.2,0c6.3-1.2,12.5-1.2,14.1-1.1c2.2,0,4.2,0.1,6.1,0.2
				C139.6,53.4,137.5,53.3,135.4,53.2z"/>
		</g>
		<g>
			<g>
				<path fill="#FFFFFF" d="M108.1,131.9c-1.4,0-2.4-0.6-3-1.8c-0.6-1.2-0.9-2.8-0.9-4.7c0-1.9,0.4-4.5,1.2-7.8
					c-1.6-0.1-4.2-0.4-7.9-0.9c-6.2,7.7-11.3,13-15.4,16c-3.5,2.6-7.1,3.9-10.9,3.9c-2.4,0-4.4-0.6-6.1-1.8c-1.7-1.2-2.6-3-2.6-5.3
					c0-0.4,0.1-0.9,0.3-1.2c0.2-0.4,0.4-0.5,0.7-0.3c0.2,0.2,0.3,0.7,0.3,1.5c0,1.5,0.6,2.7,1.8,3.4c1.2,0.8,2.6,1.1,4.3,1.1
					c3.6,0,7.2-1.2,10.7-3.6c3.5-2.4,8.3-7.1,14.4-14c-6.5-0.8-10.8-1.2-12.9-1.2c-5.6,0-9.1,1.8-10.4,5.5c-0.2,0.5-0.3,0.9-0.3,1.4
					c0,0.4,0.1,0.8,0.3,1.1c0.2,0.3,0.2,0.6,0.1,0.8c-0.1,0.2-0.3,0.3-0.6,0.3c-0.3,0-0.5-0.2-0.7-0.4c-0.5-0.8-0.7-1.7-0.7-2.5
					c0-2.8,0.5-4.8,1.5-6.1s2.2-2.1,3.5-2.5c1.6-0.4,3.5-0.7,5.6-0.7c2.1,0,7.5,0.8,16.1,2.5c2.4-2.8,6-7.2,10.9-13.3
					c4.9-6.1,7.3-9.2,7.3-9.3h0.1c0,0,0.2-0.1,0.3-0.2c1.1-0.6,2.2-0.9,3.5-0.9c0.4,0,0.7,0.2,0.7,0.7c0,0,0,0.1-0.1,0.2
					c0,0.1-0.1,0.2-0.1,0.3c0,0.1-0.1,0.2-0.1,0.3c-4.3,7.1-7.6,15.1-9.9,23.9l-0.2,0.5l1.7,0.1c0.4,0,1,0.1,1.9,0.1
					c0.9,0,1.9-0.2,2.9-0.6c1-0.4,1.7-0.9,2-1.4c0.3-0.5,0.5-0.6,0.8-0.3c0.2,0.3,0.2,0.6,0.1,0.9c-0.5,0.9-1.4,1.5-2.6,1.9
					c-1.1,0.4-2.1,0.7-3.2,0.7c-1,0-1.7,0-2,0l-1.8-0.1c-0.8,3.9-1.3,7-1.3,9.3c0,2.3,0.6,3.4,1.9,3.4c1.2,0,3.1-1,5.6-2.9
					c2.5-1.9,4.9-4.4,7.1-7.4c0.1-0.2,0.3-0.2,0.5-0.1c0.2,0.1,0.3,0.2,0.3,0.3s0,0.3-0.1,0.5c-0.1,0.2-0.4,0.7-1,1.5
					c-1.9,2.5-4.1,4.9-6.8,7.1C112.6,131.2,110.4,131.9,108.1,131.9z M111.7,98.3c0-0.1,0.1-0.2,0.2-0.4c0.1-0.2,0.1-0.3,0.2-0.4
					c-5.5,7.6-10,13.5-13.4,17.6l7,1.1C106.9,111.5,108.9,105.5,111.7,98.3z"/>
			</g>
		</g>
		<g>
			<path fill="#414042" d="M108.1,131.9c-1.4,0-2.4-0.6-3-1.8c-0.6-1.2-0.9-2.8-0.9-4.7c0-1.9,0.4-4.5,1.2-7.8
				c-1.6-0.1-4.2-0.4-7.9-0.9c-6.2,7.7-11.3,13-15.4,16c-3.5,2.6-7.1,3.9-10.9,3.9c-2.4,0-4.4-0.6-6.1-1.8c-1.7-1.2-2.6-3-2.6-5.3
				c0-0.4,0.1-0.9,0.3-1.2c0.2-0.4,0.4-0.5,0.7-0.3c0.2,0.2,0.3,0.7,0.3,1.5c0,1.5,0.6,2.7,1.8,3.4c1.2,0.8,2.6,1.1,4.3,1.1
				c3.6,0,7.2-1.2,10.7-3.6c3.5-2.4,8.3-7.1,14.4-14c-6.5-0.8-10.8-1.2-12.9-1.2c-5.6,0-9.1,1.8-10.4,5.5c-0.2,0.5-0.3,0.9-0.3,1.4
				c0,0.4,0.1,0.8,0.3,1.1c0.2,0.3,0.2,0.6,0.1,0.8c-0.1,0.2-0.3,0.3-0.6,0.3c-0.3,0-0.5-0.2-0.7-0.4c-0.5-0.8-0.7-1.7-0.7-2.5
				c0-2.8,0.5-4.8,1.5-6.1s2.2-2.1,3.5-2.5c1.6-0.4,3.5-0.7,5.6-0.7c2.1,0,7.5,0.8,16.1,2.5c2.4-2.8,6-7.2,10.9-13.3
				c4.9-6.1,7.3-9.2,7.3-9.3h0.1c0,0,0.2-0.1,0.3-0.2c1.1-0.6,2.2-0.9,3.5-0.9c0.4,0,0.7,0.2,0.7,0.7c0,0,0,0.1-0.1,0.2
				c0,0.1-0.1,0.2-0.1,0.3c0,0.1-0.1,0.2-0.1,0.3c-4.3,7.1-7.6,15.1-9.9,23.9l-0.2,0.5l1.7,0.1c0.4,0,1,0.1,1.9,0.1
				c0.9,0,1.9-0.2,2.9-0.6c1-0.4,1.7-0.9,2-1.4c0.3-0.5,0.5-0.6,0.8-0.3c0.2,0.3,0.2,0.6,0.1,0.9c-0.5,0.9-1.4,1.5-2.6,1.9
				c-1.1,0.4-2.1,0.7-3.2,0.7c-1,0-1.7,0-2,0l-1.8-0.1c-0.8,3.9-1.3,7-1.3,9.3c0,2.3,0.6,3.4,1.9,3.4c1.2,0,3.1-1,5.6-2.9
				c2.5-1.9,4.9-4.4,7.1-7.4c0.1-0.2,0.3-0.2,0.5-0.1c0.2,0.1,0.3,0.2,0.3,0.3s0,0.3-0.1,0.5c-0.1,0.2-0.4,0.7-1,1.5
				c-1.9,2.5-4.1,4.9-6.8,7.1C112.6,131.2,110.4,131.9,108.1,131.9z M111.7,98.3c0-0.1,0.1-0.2,0.2-0.4c0.1-0.2,0.1-0.3,0.2-0.4
				c-5.5,7.6-10,13.5-13.4,17.6l7,1.1C106.9,111.5,108.9,105.5,111.7,98.3z"/>
		</g>
		<g>
			<path fill="#336969" d="M170.7,62.2c-10-10.2-27.1-10.9-36.7-10.6c-4.8,0.1-9.8,0.4-14.3,1.2c0,0,0,0,0,0
				c-0.2-0.2-0.3-0.3-0.5-0.5c-5-4.5-12.4-7-19.7-8.3c-0.1,0-0.2,0-0.4-0.1c-3.6-0.6-7.1-0.9-10.3-1c-0.6,0-1.1,0-1.6,0
				c-0.4,0-0.8,0-1.1,0c-0.3,0-0.7,0-1,0c-0.7,0-1.4,0-2.2,0.1c-0.5,0-0.9,0-1.3,0.1c-0.7,0-1.5,0.1-2.2,0.1c-0.1,0-0.2,0-0.3,0
				c-0.7,0-1.5,0.1-2.2,0.2c-0.1,0-0.2,0-0.3,0c-0.6,0.1-1.2,0.1-1.8,0.2c-0.6,0.1-1.1,0.1-1.7,0.2c-0.5,0.1-1,0.2-1.5,0.2
				c-7.6,1.2-14.2,3.7-17,8.7c-1.5,2.7-0.1,5.1,2.2,7.2c0,0,0-0.1,0-0.1c0.2-0.5,0.5-1,0.9-1.5c0,0,0.1-0.1,0.1-0.1
				c-0.9-1.4-1.4-3-0.7-4.4c3.2-6.3,14.2-8.3,21.9-9c0.5,0,1-0.1,1.5-0.1c0.5,0,1-0.1,1.5-0.1c0.1,0,0.2,0,0.2,0c0.2,0,0.4,0,0.6,0
				c1.8-0.1,3.1-0.1,3.8,0c0.4,0,0.8,0,1.1,0c8.9,0.3,16.9,2.4,22.7,5c0,0,0,0,0,0c1.8,1,3.8,2.3,5.8,3.8
				c-5.8,1.4-10.5,3.8-12.8,7.9c-1.4,2.5-0.3,4.8,1.7,6.7c0.1,0.1,0.2,0.2,0.3,0.3c1.7,1.6,4,2.9,5.7,4c0.1,0.1,0.3,0.2,0.4,0.2
				c0,0-0.1,0-0.1,0c-8.4,4.2-21.8,7.3-26.1,8.1c2.7-4.1,13.3-20.3,14.2-25.3c0.2-1.1-0.4-1.5-1.2-1.5h-0.1c-1.8-0.1-4.9,1.9-3.9,2
				c1.6,0.3,0.8,2.8,0.3,3.8c-2.4,5.1-7.3,14-12.5,21.2c-1,0.3-2.5,0.5-3.6,0.6c-0.2,0-0.3,0-0.5,0c-0.2,0-0.4,0-0.5,0
				c-0.1,0-0.1,0-0.2,0c-0.1,0-0.1,0-0.2,0c-0.8,0.1-1.1,1.8,0.8,2.4c0.8,0.4,1.3,0.4,2.1,0.6c-3.8,5.9-11.3,17.5-12.8,22.2
				c-0.5,1.5-0.4,2.1-0.1,2c0.3-0.1,0.7-0.8,1.2-1.8c3-6.6,12.6-20.4,14.1-22.1c0,0,0.1,0,0.2,0c3.9,0.6,13.5,2.7,16.5,5.1
				c4.7,3.5,2.4,8.8-1.8,10.8c-3.9,1.8-8.9,2.8-13.8,3c-1.1,0-2.2,0.1-3.2,0h-0.2c-1.5-0.1-3.1,1.5,0.6,1.8c0.5,0,0.9,0,1.4,0
				c0.8,0,1.5,0,2.2,0c5.7-0.2,10.3-1.6,13.6-3.9c3.9-2.7,9.7-7.1,4.3-12.4c-1.9-1.9-8.2-5.5-15.5-6.5c-1.4-0.2-1.4-1.1,0.1-1.4
				c7.8-1.3,21.6-4.6,30.6-10.8c3.1-2.1,5.3-4.7,6.2-7.4c0-0.1,0-0.2,0.1-0.2c0.9-3,0.3-6-2.2-8.8c-0.1,0-0.2,0-0.2,0
				c-0.1-0.1-0.1-0.1-0.2-0.2c0.1,0,0.2,0,0.2,0c6.3-1.2,12.4-1.1,14-1.1c2.1,0,4.3,0.2,6.3,0.4c7.2,0.4,10.9,1.7,17.7,4.7
				c2.3,1,5.2,3,7.2,4.7c6.6,4.9,3.1,12-1.2,15.5c-6.8,5.7-25.9,10.2-30.9,11c0.1-0.1,0.1-0.2,0.2-0.3c3-4.5,13.1-20.1,14-25
				c0.1-0.7,0-1.1-0.4-1.3v0c-1.2-0.8-4.7,1-4.8,1.6c0.3,0,0.5,0.2,0.6,0.4h0c1,0.6,0.3,2.8-0.2,3.7c-2.4,5.1-7.3,14-12.5,21.2
				c-1.5,0.4-3.9,0.6-5,0.7c-0.6,0.1-0.9,1-0.3,1.8c0.2,0.3,0.6,0.5,1.1,0.7c0.7,0.3,1.2,0.4,1.8,0.6c0.1,0,0.2,0,0.3,0.1
				c-3.8,5.9-11.3,17.5-12.8,22.2c-0.3,0.9-0.4,1.5-0.3,1.8c0.1,0.6,0.8-0.1,1.5-1.6c3-6.6,12.6-20.4,14.1-22.1
				c3.8,0.5,13.6,2.7,16.6,5.1c0.2,0.2,0.4,0.3,0.6,0.5c0,0,0.1,0.1,0.1,0.1c3.7,3.5,1.3,8.3-2.6,10.1c-4.8,2.2-11.3,3.2-17.1,3.1
				c-1-0.1-2,0.6-1.6,1.1c0.2,0.3,0.9,0.6,2.2,0.7c7.3,0.4,13.2-1.1,17.2-3.8c3.9-2.7,9.6-7.1,4.4-12.3c-0.1-0.1-0.2-0.2-0.3-0.3
				c-2.1-2-8.3-5.4-15.3-6.3c-0.5-0.1-0.8-0.2-1-0.4c0,0,0,0,0,0c-0.2-0.3,0.1-0.8,1.1-1c7.8-1.3,21.6-4.6,30.6-10.8
				C174.1,74.7,176.3,69.3,170.7,62.2z M120.7,64.3c-0.8,2.1-2.5,4-4.3,5.5c-1,0.8-2.2,1.6-3.6,2.4c0,0,0,0-0.1-0.1l0,0
				c0,0,0,0,0-0.1c0,0,0,0,0,0c-0.2-0.2-0.4-0.3-0.7-0.5c-0.8-0.4-2.2-1.4-3.4-2.6c-0.1-0.1-0.2-0.2-0.3-0.3c-1.8-1.8-3.1-4-2.1-6.1
				c2-3.9,6.9-6.2,12.2-7.5C121.3,58.6,121.7,61.7,120.7,64.3z"/>
		</g>
	</g>
</g>
<g id="Names">
	<g>
		<g>
			<path fill="#D1D3D4" d="M192.9,62.3c0-0.1,0.1-0.1,0.3-0.1c0.1,0,0.3,0,0.6,0.1c0.3,0.1,0.9,0.1,1.6,0.2c0.7,0.1,1.6,0.1,2.6,0.1
				c5.8,0,10.8-0.9,15.1-2.8c4.3-1.9,6.6-4.1,7-6.6c0.5-3.3-3.5-5-12.2-5c-0.5,0-1.1,0-2,0c-0.9,0-1.5,0-1.9,0L197.4,61
				c-1,0-1.8-0.2-2.4-0.6c-0.6-0.4-0.8-0.8-0.8-1.4c0-0.2,0.4-1,1.1-2.3c0.8-1.4,1.9-3.2,3.2-5.4c1.3-2.2,3.1-5,5.4-8.5
				c2.3-3.4,4.3-6.1,6-8.1c-1.3,0.2-2.6,0.5-3.7,0.8c-1.2,0.4-2.1,0.7-2.7,0.9c-0.6,0.3-1,0.4-1.2,0.4c-0.3,0-0.6-0.1-1-0.4
				c-0.4-0.3-0.5-0.5-0.5-0.7c1.6-0.5,2.9-0.8,3.8-1.1c1-0.2,2.3-0.5,3.9-0.7c1.7-0.2,3.3-0.4,5.1-0.4c1.4,0,2.7,0.1,3.9,0.2
				c1.2,0.2,2.4,0.4,3.7,0.8c1.3,0.4,2.2,1,2.9,1.9c0.6,0.9,0.9,2,0.7,3.3c-0.6,4.1-5,6.6-13.1,7.6c7.8,0.4,11.4,2.5,10.8,6.4
				c-0.3,1.8-1.3,3.4-3.2,4.9c-1.8,1.5-4,2.7-6.5,3.6c-2.5,0.9-5.1,1.6-7.6,2.1c-2.6,0.5-4.9,0.7-6.9,0.7
				C194.4,65.2,192.6,64.3,192.9,62.3z M204.5,47.3c2-0.1,4-0.2,5.8-0.5c1.8-0.3,3.6-0.7,5.3-1.3c1.7-0.6,3.1-1.4,4.2-2.4
				c1.1-1,1.7-2.2,2-3.5c0.5-3.4-2.1-5.1-8-5.1c-0.4,0-0.8,0-1,0C210.3,37.5,207.6,41.7,204.5,47.3z"/>
			<path fill="#D1D3D4" d="M222.5,60.6c0.2-1.6,1.2-3.3,3-5.2c1.7-1.9,3.8-3.5,6.3-4.9c2.5-1.4,4.8-2.1,6.9-2.1
				c1.4,0,2.4,0.3,3.3,0.8c0.8,0.6,1.2,1.3,1,2.2c-0.2,1.1-1.1,1.7-2.8,1.7c0.2-0.5,0.4-0.9,0.5-1.4c0.2-1.5-0.5-2.2-2.2-2.2
				c-1.5,0-3.2,0.7-5.1,2c-1.9,1.3-3.6,2.9-4.9,4.6c-1.4,1.8-2.1,3.3-2.3,4.6c-0.2,1,0.2,1.5,1.2,1.5c0.6,0,1.4-0.2,2.3-0.7
				c0.9-0.4,1.7-0.9,2.5-1.5c0.8-0.6,1.7-1.3,2.8-2.2c1.1-0.9,1.9-1.7,2.4-2.2l2.2-2.1c1.4,0.2,2,0.5,1.9,1c0,0.2-0.7,1-1.9,2.4
				c-1.2,1.4-1.9,2.4-2,3.1c-0.1,0.4,0,0.8,0.3,1.2s0.7,0.5,1.3,0.5c1,0,2.3-0.5,4-1.6c1.7-1.1,3.4-2.6,5.2-4.6l0.5,0.4
				c-1.4,2.1-3.2,3.8-5.3,5.1c-2.2,1.3-4.2,2-6.1,2c-1.2,0-2.1-0.3-2.6-0.8c-0.5-0.5-0.8-1.2-0.6-1.9c0-0.3,0.2-0.7,0.3-1.1
				c-1.8,1.6-3.4,2.7-4.7,3.4c-1.3,0.7-2.6,1.1-3.8,1.1c-1.1,0-2-0.3-2.6-0.8C222.6,62.4,222.3,61.6,222.5,60.6z"/>
			<path fill="#D1D3D4" d="M247.1,57c2-2.4,3.8-4.9,5.4-7.5c-0.3-0.3-0.5-0.6-0.4-0.9c0.1-0.7,0.5-1.3,1.1-1.9
				c0.6-0.5,1.1-0.8,1.5-0.8c0.5,0,0.7,0.3,0.6,0.9c0,0.1-0.1,0.4-0.3,0.8c-0.2,0.4-0.3,0.6-0.3,0.7c0,0.3,0.2,0.7,0.7,1
				c0.5,0.4,1,0.7,1.6,1c0.6,0.3,1.1,0.8,1.6,1.4c0.5,0.6,0.6,1.3,0.5,2.1c-0.1,0.9-0.8,2.1-1.9,3.6s-1.7,2.6-1.8,3.1
				c-0.1,0.8,0.3,1.2,1.4,1.2c1.5,0,3.3-0.7,5.3-2c2-1.3,3.5-2.6,4.4-3.9l0.6,0.4c-1.4,1.8-3.2,3.4-5.4,4.8
				c-2.3,1.4-4.4,2.1-6.5,2.1c-1.2,0-2.1-0.2-2.7-0.7c-0.6-0.5-0.8-1.1-0.7-1.9c0.1-0.8,0.8-2,2-3.8c1.2-1.7,1.9-2.9,2-3.6
				c0-0.3,0-0.5,0-0.8c-0.1-0.2-0.1-0.4-0.2-0.6c-0.1-0.1-0.2-0.3-0.5-0.5l-0.5-0.4c-0.1-0.1-0.3-0.2-0.6-0.4
				c-0.3-0.2-0.5-0.3-0.6-0.4c-2.2,3.2-4.2,5.7-5.9,7.6L247.1,57z"/>
			<path fill="#D1D3D4" d="M264.9,59.5c0.4-2.6,2-6,4.8-10.1c2.8-4.2,5.7-7.8,8.7-10.9c3-3.1,5.1-4.6,6.3-4.6c0.4,0,0.8,0.2,1,0.7
				c0.2,0.5,0.3,1.1,0.2,1.8c-0.3,1.9-1.7,4-4.1,6.5c-2.4,2.4-5.2,4.3-8.4,5.7c-2.9,4.3-4.7,8-5.2,11.3c5-7.4,9.4-11.1,13.3-11.1
				c1.3,0,2.3,0.3,3.1,1c0.8,0.7,1.1,1.5,1,2.5c-0.2,1-0.8,1.9-1.9,2.7c-1.1,0.8-2.2,1.3-3.3,1.5c-1.1,0.3-2.1,0.4-2.9,0.4
				c0,0.5,0.1,1.1,0.2,1.8c0.1,0.7,0.4,1.4,1,2.2c0.5,0.8,1.2,1.2,2,1.2c2.6,0,5.5-2.2,8.7-6.5l0.5,0.4c-1.1,2-2.6,3.8-4.7,5.3
				c-2.1,1.5-4,2.3-5.7,2.3c-1.2,0-2.2-0.4-2.9-1.3c-0.7-0.9-1.1-1.8-1.3-2.8c-0.1-1-0.1-2,0-2.9c0.7,0,1.5-0.1,2.5-0.4
				c1-0.2,2-0.7,3-1.3c1-0.6,1.6-1.3,1.7-2.2c0.1-0.5-0.1-1-0.6-1.3c-0.5-0.3-1-0.5-1.7-0.5c-1.4,0-2.9,0.6-4.4,1.8
				c-1.5,1.2-2.7,2.4-3.7,3.8c-0.9,1.3-1.9,2.7-2.7,4.1c-0.9,1.4-1.3,2.1-1.4,2.1c-0.5,0.5-1.1,0.7-1.8,0.7h-0.1
				c-0.4,0-0.7-0.1-1-0.3c-0.2-0.2-0.4-0.5-0.4-0.9c0-0.4-0.1-0.8,0-1.1C264.7,60.5,264.8,60.1,264.9,59.5z M274.5,46.9
				c2.5-1.4,4.6-3,6.4-5c1.8-2,2.8-3.5,3-4.6c0-0.2,0-0.4-0.1-0.4c-0.5,0-1.7,1-3.6,3S276.4,44.3,274.5,46.9z"/>
			<path fill="#D1D3D4" d="M287.1,59.2c0.4-2.4,2.2-4.9,5.5-7.5c3.3-2.6,6.5-3.9,9.4-3.9c2.1,0,3.1,0.8,2.8,2.4
				c-0.3,1.9-1.9,3.6-4.8,5.1c-2.9,1.5-6,2.3-9.2,2.6c-0.2,0.4-0.4,0.9-0.4,1.4c-0.3,2.2,0.8,3.3,3.6,3.3c2.1,0,4.3-0.7,6.7-2
				c2.4-1.3,4.4-3,6-5l0.6,0.4c-1.8,2.3-4,4.2-6.6,5.6c-2.7,1.4-5.3,2.1-7.9,2.1c-2.1,0-3.6-0.4-4.5-1.3
				C287.3,61.6,286.9,60.5,287.1,59.2z M291.2,57.1c2.5-0.7,5-1.6,7.4-3c2.4-1.3,3.8-2.7,4-4.2c0.1-0.6-0.2-0.9-0.9-0.9
				c-1.6,0-3.5,0.9-5.7,2.6C293.9,53.3,292.3,55.2,291.2,57.1z"/>
			<path fill="#D1D3D4" d="M305.5,57c2-2.4,3.8-4.9,5.4-7.5c-0.3-0.3-0.5-0.6-0.4-0.9c0.1-0.7,0.5-1.3,1.1-1.9
				c0.6-0.5,1.1-0.8,1.5-0.8c0.5,0,0.7,0.3,0.6,0.9c0,0.1-0.1,0.4-0.3,0.8c-0.2,0.4-0.3,0.6-0.3,0.7c0,0.3,0.2,0.7,0.7,1
				c0.5,0.4,1,0.7,1.6,1c0.6,0.3,1.1,0.8,1.6,1.4c0.5,0.6,0.6,1.3,0.5,2.1c-0.1,0.9-0.8,2.1-1.9,3.6s-1.7,2.6-1.8,3.1
				c-0.1,0.8,0.3,1.2,1.4,1.2c1.5,0,3.3-0.7,5.3-2c2-1.3,3.5-2.6,4.4-3.9l0.6,0.4c-1.4,1.8-3.2,3.4-5.4,4.8
				c-2.3,1.4-4.4,2.1-6.5,2.1c-1.2,0-2.1-0.2-2.7-0.7c-0.6-0.5-0.8-1.1-0.7-1.9c0.1-0.8,0.8-2,2-3.8c1.2-1.7,1.9-2.9,2-3.6
				c0-0.3,0-0.5,0-0.8c-0.1-0.2-0.1-0.4-0.2-0.6c-0.1-0.1-0.2-0.3-0.5-0.5l-0.5-0.4c-0.1-0.1-0.3-0.2-0.6-0.4
				c-0.3-0.2-0.5-0.3-0.6-0.4c-2.2,3.2-4.2,5.7-5.9,7.6L305.5,57z"/>
		</g>
	</g>
	<g>
		<g>
			<path fill="#D1D3D4" d="M185.6,103.9c0-0.1,0.1-0.1,0.3-0.1c0.1,0,0.3,0,0.6,0.1c0.3,0.1,0.9,0.1,1.6,0.2
				c0.7,0.1,1.6,0.1,2.6,0.1c5.8,0,10.8-0.9,15.1-2.8c4.3-1.9,6.6-4.1,7-6.6c0.5-3.3-3.5-5-12.2-5c-0.5,0-1.1,0-2,0
				c-0.9,0-1.5,0-1.9,0l-6.7,12.8c-1,0-1.8-0.2-2.4-0.6c-0.6-0.4-0.8-0.8-0.8-1.4c0-0.2,0.4-1,1.1-2.3c0.8-1.4,1.9-3.2,3.2-5.4
				c1.3-2.2,3.1-5,5.4-8.5c2.3-3.4,4.3-6.1,6-8.1c-1.3,0.2-2.6,0.5-3.7,0.8c-1.2,0.4-2.1,0.7-2.7,0.9c-0.6,0.3-1,0.4-1.2,0.4
				c-0.3,0-0.6-0.1-1-0.4c-0.4-0.3-0.5-0.5-0.5-0.7c1.6-0.5,2.9-0.8,3.8-1.1c1-0.2,2.3-0.5,3.9-0.7c1.7-0.2,3.3-0.4,5.1-0.4
				c1.4,0,2.7,0.1,3.9,0.2c1.2,0.2,2.4,0.4,3.7,0.8c1.3,0.4,2.2,1,2.9,1.9c0.6,0.9,0.9,2,0.7,3.3c-0.6,4.1-5,6.6-13.1,7.6
				c7.8,0.4,11.4,2.5,10.8,6.4c-0.3,1.8-1.3,3.4-3.2,4.9c-1.8,1.5-4,2.7-6.5,3.6c-2.5,0.9-5.1,1.6-7.6,2.1c-2.6,0.5-4.9,0.7-6.9,0.7
				C187,106.8,185.3,105.9,185.6,103.9z M197.2,88.9c2-0.1,4-0.2,5.8-0.5c1.8-0.3,3.6-0.7,5.3-1.3c1.7-0.6,3.1-1.4,4.2-2.4
				c1.1-1,1.7-2.2,2-3.5c0.5-3.4-2.1-5.1-8-5.1c-0.4,0-0.8,0-1,0C203,79.1,200.2,83.3,197.2,88.9z"/>
			<path fill="#D1D3D4" d="M216.9,100.8c0.3-1.8,1.3-4.2,3.2-7.2c1.8-3,3.8-5.8,6-8.5c2.2-2.7,4.4-5,6.5-7c2.1-2,3.6-2.9,4.5-2.9
				c0.5,0,0.8,0.3,1.1,1c0.2,0.7,0.3,1.3,0.2,1.9c-0.3,2-2.2,5-5.7,9c-3.5,4-7.1,7.2-11,9.4c-0.7,1.5-1.1,2.9-1.3,4
				c-0.3,2,0.3,3,1.8,3c1.3,0,2.7-0.6,4.2-1.9c1.5-1.2,2.9-2.7,4.3-4.5l0.7,0.3c-3.7,4.8-7.3,7.2-10.8,7.2h-0.1
				C217.6,104.8,216.4,103.5,216.9,100.8z M222.3,95.2c3.2-2.2,6.3-5.1,9.3-8.6c3-3.6,4.7-6.1,4.9-7.5c0.1-0.4,0-0.6-0.3-0.6
				c-0.5,0-1.6,0.8-3.3,2.5c-1.7,1.7-3.6,3.9-5.7,6.6C225.2,90.3,223.5,92.8,222.3,95.2z"/>
			<path fill="#D1D3D4" d="M227.4,102.2c0.2-1.6,1.2-3.3,3-5.2c1.7-1.9,3.8-3.5,6.3-4.9c2.5-1.4,4.8-2.1,6.9-2.1
				c1.4,0,2.4,0.3,3.3,0.8s1.2,1.3,1,2.2c-0.2,1.1-1.1,1.7-2.8,1.7c0.2-0.5,0.4-0.9,0.5-1.4c0.2-1.5-0.5-2.2-2.2-2.2
				c-1.5,0-3.2,0.7-5.1,2c-1.9,1.3-3.6,2.9-4.9,4.6c-1.4,1.7-2.1,3.3-2.3,4.6c-0.2,1,0.2,1.5,1.2,1.5c0.6,0,1.4-0.2,2.3-0.7
				c0.9-0.4,1.7-0.9,2.5-1.5c0.8-0.6,1.7-1.3,2.8-2.2c1.1-0.9,1.9-1.7,2.4-2.2l2.2-2.1c1.4,0.2,2,0.5,1.9,1c0,0.2-0.7,1-1.9,2.4
				c-1.2,1.4-1.9,2.4-2,3.1c-0.1,0.4,0,0.8,0.3,1.2c0.2,0.4,0.7,0.5,1.3,0.5c1,0,2.3-0.5,4-1.6c1.7-1.1,3.4-2.6,5.2-4.6l0.5,0.4
				c-1.4,2.1-3.2,3.8-5.3,5.1c-2.2,1.3-4.2,2-6.1,2c-1.2,0-2.1-0.3-2.6-0.8c-0.5-0.5-0.8-1.2-0.6-1.9c0-0.3,0.2-0.7,0.3-1.1
				c-1.8,1.6-3.4,2.7-4.7,3.4c-1.3,0.7-2.6,1.1-3.8,1.1c-1.1,0-2-0.3-2.6-0.8S227.2,103.2,227.4,102.2z"/>
			<path fill="#D1D3D4" d="M248.7,112.4c0.1-0.5,0.3-1,0.6-1.5c0.3-0.5,0.8-0.9,1.5-1.4c0.7-0.5,1.3-0.8,1.8-1.1
				c0.5-0.3,1.3-0.7,2.4-1.1l2.3-0.9c0.4-0.2,1.3-0.5,2.5-0.9c1.3-1.9,2.5-4,3.7-6.4c-3.6,3.3-6.7,4.9-9.2,4.9c-1.2,0-2.1-0.3-2.7-1
				c-0.6-0.7-0.8-1.6-0.6-2.7c0.3-1.8,1.3-3.5,3.1-5.1c1.8-1.6,3.8-2.9,6-3.9c2.3-0.9,4.3-1.4,6.2-1.4c1.9,0,2.7,0.4,2.6,1.3
				c-0.1,0.4-0.3,0.7-0.7,0.8c-0.3-0.4-1-0.6-2-0.6c-2.6,0-5.1,1.1-7.6,3.2c-2.5,2.1-3.9,4.1-4.2,5.9c-0.2,1.3,0.3,2,1.5,2
				c0.9,0,2.2-0.5,3.7-1.5c1.6-1,3.1-2.3,4.8-3.8l1-2.1c0.6-1.4,1.6-2,3-2c0.3,0,0.7,0,1.1,0.1c-0.1,0.7-0.7,2.1-1.8,4.3
				c-1.1,2.1-2.4,4.3-3.9,6.5c1.9-0.6,3.7-1.6,5.4-2.7c1.7-1.2,3.1-2.4,4.1-3.9l0.6,0.4c-1,1.6-2.5,3-4.6,4.3
				c-2.1,1.3-4.2,2.3-6.3,3c-4.5,6.4-8.4,9.6-11.6,9.6c-0.8,0-1.5-0.2-2-0.6C248.8,113.7,248.6,113.2,248.7,112.4z M250.3,112.1
				c-0.1,0.4,0,0.8,0.2,1c0.2,0.3,0.5,0.4,0.8,0.4c0.8,0,1.9-0.6,3.3-1.7c1.4-1.2,2.9-2.9,4.5-5.2c-2.7,1-4.8,1.9-6.3,2.7
				C251.3,110.1,250.5,111,250.3,112.1z"/>
			<path fill="#D1D3D4" d="M272.2,98.6c2-2.4,3.8-4.9,5.4-7.5c-0.3-0.3-0.5-0.6-0.4-0.9c0.1-0.7,0.5-1.3,1.1-1.9
				c0.6-0.5,1.1-0.8,1.5-0.8c0.5,0,0.7,0.3,0.6,0.9c0,0.1-0.1,0.4-0.3,0.8c-0.2,0.4-0.3,0.6-0.3,0.7c0,0.3,0.2,0.7,0.7,1
				c0.5,0.4,1,0.7,1.6,1c0.6,0.3,1.1,0.8,1.6,1.4c0.5,0.6,0.6,1.3,0.5,2.1c-0.1,0.9-0.8,2.1-1.9,3.6c-1.1,1.5-1.7,2.6-1.8,3.1
				c-0.1,0.8,0.3,1.2,1.4,1.2c1.5,0,3.3-0.7,5.3-2c2-1.3,3.5-2.6,4.4-3.9l0.6,0.4c-1.4,1.8-3.2,3.4-5.4,4.8
				c-2.3,1.4-4.4,2.1-6.5,2.1c-1.2,0-2.1-0.2-2.7-0.7c-0.6-0.5-0.8-1.1-0.7-1.9c0.1-0.8,0.8-2,2-3.8c1.2-1.7,1.9-2.9,2-3.6
				c0-0.3,0-0.5,0-0.8c-0.1-0.2-0.1-0.4-0.2-0.6c-0.1-0.1-0.2-0.3-0.5-0.5l-0.5-0.4c-0.1-0.1-0.3-0.2-0.6-0.4
				c-0.3-0.2-0.5-0.3-0.6-0.4c-2.2,3.2-4.2,5.7-5.9,7.6L272.2,98.6z"/>
			<path fill="#D1D3D4" d="M288.2,102.2c0.2-1.6,1.2-3.3,3-5.2c1.7-1.9,3.8-3.5,6.3-4.9c2.5-1.4,4.8-2.1,6.9-2.1
				c1.4,0,2.4,0.3,3.3,0.8s1.2,1.3,1,2.2c-0.2,1.1-1.1,1.7-2.8,1.7c0.2-0.5,0.4-0.9,0.5-1.4c0.2-1.5-0.5-2.2-2.2-2.2
				c-1.5,0-3.2,0.7-5.1,2c-1.9,1.3-3.6,2.9-4.9,4.6c-1.4,1.7-2.1,3.3-2.3,4.6c-0.2,1,0.2,1.5,1.2,1.5c0.6,0,1.4-0.2,2.3-0.7
				c0.9-0.4,1.7-0.9,2.5-1.5c0.8-0.6,1.7-1.3,2.8-2.2c1.1-0.9,1.9-1.7,2.4-2.2l2.2-2.1c1.4,0.2,2,0.5,1.9,1c0,0.2-0.7,1-1.9,2.4
				c-1.2,1.4-1.9,2.4-2,3.1c-0.1,0.4,0,0.8,0.3,1.2c0.2,0.4,0.7,0.5,1.3,0.5c1,0,2.3-0.5,4-1.6c1.7-1.1,3.4-2.6,5.2-4.6l0.5,0.4
				c-1.4,2.1-3.2,3.8-5.3,5.1c-2.2,1.3-4.2,2-6.1,2c-1.2,0-2.1-0.3-2.6-0.8c-0.5-0.5-0.8-1.2-0.6-1.9c0-0.3,0.2-0.7,0.3-1.1
				c-1.8,1.6-3.4,2.7-4.7,3.4c-1.3,0.7-2.6,1.1-3.8,1.1c-1.1,0-2-0.3-2.6-0.8S288,103.2,288.2,102.2z"/>
			<path fill="#D1D3D4" d="M312.8,100.8c0.1-0.5,0.5-2.2,1.1-5.2c0.1-0.6,0.2-0.9,0.3-1.1c0.1-0.2,0.3-0.4,0.5-0.5
				c0.2-0.1,0.6-0.2,1.1-0.2c0.6,0,0.9,0.1,1.1,0.3c0.1,0.2,0.2,0.5,0.1,1c-0.1,0.6-0.3,1.6-0.7,3.1c-0.4,1.5-0.6,2.6-0.8,3.3
				c-0.2,1.5,0,2.2,0.8,2.2c1.1,0,2.7-0.9,4.6-2.7c1.9-1.8,3.7-3.8,5.3-6c0.6-3,1.7-4.5,3.2-4.5c0.6,0,1,0.2,1.2,0.5s0.4,0.7,0.3,1
				c0,0.2-0.2,0.6-0.6,1c-0.3,0.4-0.7,1-1.1,1.7c-0.4,0.7-0.7,1.6-0.9,2.6c-0.3,2,0.3,3,2,3c1.5,0,3-1,4.6-2.9l0.6,0.4
				c-1.6,2.2-3.5,3.4-5.7,3.4c-2.5,0-3.8-1.3-3.8-3.8c-1.8,2.2-3.7,4-5.7,5.5c-2.1,1.5-3.9,2.3-5.4,2.3
				C313.1,105.2,312.4,103.7,312.8,100.8z"/>
			<path fill="#D1D3D4" d="M332.7,100.8c0.4-2.4,2.2-4.9,5.5-7.5c3.3-2.6,6.5-3.9,9.4-3.9c2.1,0,3.1,0.8,2.8,2.4
				c-0.3,1.9-1.9,3.6-4.8,5.1c-2.9,1.5-6,2.3-9.2,2.6c-0.2,0.4-0.4,0.9-0.4,1.4c-0.3,2.2,0.8,3.3,3.6,3.3c2.1,0,4.3-0.7,6.7-2
				c2.4-1.3,4.4-3,6-5l0.6,0.4c-1.8,2.3-4,4.2-6.6,5.6c-2.7,1.4-5.3,2.1-7.9,2.1c-2.1,0-3.6-0.4-4.5-1.3S332.5,102.1,332.7,100.8z
				 M336.9,98.7c2.5-0.7,5-1.6,7.4-3c2.4-1.3,3.8-2.7,4-4.2c0.1-0.6-0.2-0.9-0.9-0.9c-1.6,0-3.5,0.9-5.7,2.6
				C339.5,94.9,337.9,96.8,336.9,98.7z"/>
		</g>
	</g>
	<g>
		<g>
			<path fill="#D1D3D4" d="M204,144.8c0.3-2,3.6-6.1,9.8-12.3c-2.1-0.1-3.9-0.2-5.6-0.2h-1.8c0.9-1.3,2.8-2,5.7-2
				c0.9,0,2.1,0.1,3.7,0.3c3.1-3.1,6.3-5.9,9.5-8.6s5.6-4.6,7.4-5.8c1.1-0.7,2-1.1,2.7-1.1c0.7,0,1.6,0.4,2.5,1.3
				c-1.2,0.7-3.4,3.9-6.4,9.8c-3,5.8-4.8,10.3-5.3,13.6c-0.3,2.1,0.1,3.1,1.4,3.1c1.9,0,4.5-1.9,7.7-5.8l0.5,0.4
				c-1.4,2.2-3,3.9-4.8,5.3c-1.8,1.3-3.6,2-5.3,2c-2.7,0-3.8-1.8-3.2-5.4c0.3-1.7,0.9-3.6,1.8-5.8c-2.2-0.3-4.7-0.5-7.5-0.8
				c-4.1,4.7-7.9,9.5-11.3,14.2C204.3,146.4,203.8,145.7,204,144.8z M218.3,130.9l3.7,0.7c1.6,0.3,2.5,0.5,2.8,0.5
				c2.3-5.2,5.1-10,8.5-14.6C229.9,119,224.9,123.4,218.3,130.9z"/>
			<path fill="#D1D3D4" d="M232.7,140.2c0.1-0.7,0.4-1.3,0.8-1.8c0.4-0.5,0.8-0.8,1.2-1c0.4-0.2,0.8-0.3,1.3-0.5
				c0.4-0.1,0.7-0.2,0.8-0.3c2.5-1.8,4.5-3.7,6-5.7l0.1-0.5c0.1-0.9,0.4-1.6,0.9-2c0.5-0.4,1-0.7,1.5-0.7s0.8,0.2,0.7,0.5
				c0,0.1-0.1,0.3-0.3,0.6s-0.3,0.7-0.3,1.1c-0.1,0.8,0.1,2.2,0.7,4.4c0.6,2.1,0.7,3.8,0.5,5.1c-0.1,0.7-0.3,1.4-0.6,1.9
				c2.6-0.3,5-1.8,7.2-4.5l0.4,0.4c-1.6,2.7-4.3,4.3-8,4.7c-1.4,2.2-3.8,3.3-7.1,3.3c-2.3,0-3.9-0.5-4.8-1.5
				S232.5,141.6,232.7,140.2z M235.2,140.2c-0.2,1,0.1,1.9,0.7,2.7c0.6,0.8,1.6,1.2,2.9,1.2c1.6,0,2.8-0.6,3.6-1.9
				c-1.3-0.2-2.5-0.6-3.6-1.2c-1-0.6-1.8-1.3-2.3-2C235.8,138.9,235.4,139.3,235.2,140.2z M237,137.6c0.9,2.1,2.9,3.4,5.8,3.9
				c0.2-0.7,0.4-1.3,0.5-1.9c0.1-0.7,0.2-1.5,0.1-2.3c0-0.8-0.1-1.7-0.3-2.7c-0.2-1-0.3-1.7-0.3-2.1
				C240.7,134.7,238.7,136.4,237,137.6z"/>
			<path fill="#D1D3D4" d="M250.6,140.2c0.1-0.7,0.4-1.3,0.8-1.8c0.4-0.5,0.8-0.8,1.2-1c0.4-0.2,0.8-0.3,1.3-0.5
				c0.4-0.1,0.7-0.2,0.8-0.3c2.5-1.8,4.5-3.7,6-5.7l0.1-0.5c0.1-0.9,0.4-1.6,0.9-2c0.5-0.4,1-0.7,1.5-0.7s0.8,0.2,0.7,0.5
				c0,0.1-0.1,0.3-0.3,0.6s-0.3,0.7-0.3,1.1c-0.1,0.8,0.1,2.2,0.7,4.4c0.6,2.1,0.7,3.8,0.5,5.1c-0.1,0.7-0.3,1.4-0.6,1.9
				c2.6-0.3,5-1.8,7.2-4.5l0.4,0.4c-1.6,2.7-4.3,4.3-8,4.7c-1.4,2.2-3.8,3.3-7.1,3.3c-2.3,0-3.9-0.5-4.8-1.5
				S250.3,141.6,250.6,140.2z M253.1,140.2c-0.2,1,0.1,1.9,0.7,2.7c0.6,0.8,1.6,1.2,2.9,1.2c1.6,0,2.8-0.6,3.6-1.9
				c-1.3-0.2-2.5-0.6-3.6-1.2c-1-0.6-1.8-1.3-2.3-2C253.7,138.9,253.2,139.3,253.1,140.2z M254.9,137.6c0.9,2.1,2.9,3.4,5.8,3.9
				c0.2-0.7,0.4-1.3,0.5-1.9c0.1-0.7,0.2-1.5,0.1-2.3c0-0.8-0.1-1.7-0.3-2.7c-0.2-1-0.3-1.7-0.3-2.1
				C258.6,134.7,256.6,136.4,254.9,137.6z"/>
			<path fill="#D1D3D4" d="M268.8,141.1c0.3-1.7,1.2-3.4,2.7-5c1.5-1.7,3-2.5,4.5-2.5c0.3,0,0.7,0.1,1.1,0.2
				c-0.7,0.4-1.7,1.5-2.8,3.1c-1.2,1.7-1.8,3-2,3.9c-0.2,1.6,0.3,2.3,1.5,2.3c1.5,0,3.5-1.1,6.1-3.2c-0.9-0.6-1.5-1.4-1.9-2.4
				c-0.4-1-0.5-2-0.3-3c0.2-1.4,0.9-2.6,1.9-3.5c1.1-1,2.4-1.5,3.9-1.5c2.4,0,3.4,1,3.1,3.1c-0.3,2.1-1.9,4.4-4.6,7
				c0.6,0.3,1.2,0.4,1.9,0.4c1,0,2.1-0.2,3.2-0.7s2.1-1.2,2.8-2.2l0.6,0.4c-0.8,1.2-1.9,2-3.2,2.6c-1.3,0.6-2.6,0.8-3.9,0.8
				c-0.9,0-1.7-0.1-2.4-0.4c-3.2,2.8-6.1,4.1-8.6,4.1c-1.4,0-2.4-0.3-3-1C268.8,143.1,268.7,142.2,268.8,141.1z M279.8,134.6
				c-0.3,1.8,0.1,3.2,1.1,4.3c2.4-2.3,3.7-4.3,4-6.1c0.2-1.5-0.2-2.2-1.2-2.2c-0.8,0-1.5,0.4-2.4,1.2
				C280.5,132.6,280,133.6,279.8,134.6z"/>
			<path fill="#D1D3D4" d="M288.1,140.6c0.4-2.6,2-5,4.8-7.2c2.8-2.2,5.5-3.3,8.2-3.3c1.3,0,2.2,0.3,2.7,0.8
				c0.5,0.6,0.7,1.3,0.5,2.1c-0.1,0.8-0.5,1.5-1,2c-0.6,0.6-1.2,0.8-2,0.8c-0.6,0-1.1-0.2-1.4-0.6c0.5-0.2,1.1-0.6,1.5-1.2
				c0.5-0.6,0.8-1.3,0.9-1.9c0.1-0.7-0.2-1-1-1c-1.8,0-3.8,1.1-6.1,3.4c-2.3,2.2-3.6,4.3-3.9,6.3c-0.3,2.2,0.7,3.3,3.3,3.3
				c2.1,0,4.3-0.7,6.6-2c2.3-1.3,4.1-3,5.6-5.2l0.6,0.4c-1.6,2.4-3.7,4.3-6.3,5.9c-2.7,1.5-5.3,2.3-7.8,2.3c-1.7,0-3.1-0.4-4-1.3
				C288.2,143.4,287.8,142.2,288.1,140.6z"/>
			<path fill="#D1D3D4" d="M304.7,141.1c0.2-1,0.7-2.4,1.7-4.1c1-1.7,2.2-3.3,3.7-4.8c1.4-1.4,2.7-2.2,3.8-2.2c0.8,0,1.1,0.3,1,0.9
				c0,0.3-0.6,1-1.7,2.2c-1.1,1.1-2.2,2.4-3.3,3.9c-1.1,1.4-1.8,2.7-1.9,3.8c-0.1,0.9,0,1.5,0.3,1.9s1,0.5,1.9,0.5
				c2.7,0,5.7-2,8.9-6.1l0.4,0.4c-1.3,2.2-3,3.9-5.1,5.1c-2.1,1.2-4.2,1.8-6.2,1.8c-1.3,0-2.2-0.3-2.8-0.9
				C304.8,142.9,304.6,142.1,304.7,141.1z M315.4,125.1c0.1-0.5,0.6-1,1.5-1.4c0.9-0.4,1.8-0.6,2.6-0.6c1.1,0,1.6,0.4,1.5,1.2
				c-0.1,0.5-0.5,1-1.3,1.5c-0.8,0.5-1.6,0.7-2.4,0.7C315.9,126.4,315.2,126,315.4,125.1z"/>
			<path fill="#D1D3D4" d="M316,142c0.2-1.6,1.2-3.3,3-5.2c1.7-1.9,3.8-3.5,6.3-4.9c2.5-1.4,4.8-2.1,6.9-2.1c1.4,0,2.4,0.3,3.3,0.8
				s1.2,1.3,1,2.2c-0.2,1.1-1.1,1.7-2.8,1.7c0.2-0.5,0.4-0.9,0.5-1.4c0.2-1.5-0.5-2.2-2.2-2.2c-1.5,0-3.2,0.7-5.1,2
				c-1.9,1.3-3.6,2.9-4.9,4.6c-1.4,1.8-2.1,3.3-2.3,4.6c-0.2,1,0.2,1.5,1.2,1.5c0.6,0,1.4-0.2,2.3-0.7c0.9-0.4,1.7-0.9,2.5-1.5
				c0.8-0.6,1.7-1.3,2.8-2.2c1.1-0.9,1.9-1.7,2.4-2.2l2.2-2.1c1.4,0.2,2,0.5,1.9,1c0,0.2-0.7,1-1.9,2.4c-1.2,1.4-1.9,2.4-2,3.1
				c-0.1,0.4,0,0.8,0.3,1.2c0.2,0.4,0.7,0.5,1.3,0.5c1,0,2.3-0.5,4-1.6c1.7-1.1,3.4-2.6,5.2-4.6l0.5,0.4c-1.4,2.1-3.2,3.8-5.3,5.1
				c-2.2,1.3-4.2,2-6.1,2c-1.2,0-2.1-0.3-2.6-0.8c-0.5-0.5-0.8-1.2-0.6-1.9c0-0.3,0.2-0.7,0.3-1.1c-1.8,1.6-3.4,2.7-4.7,3.4
				c-1.3,0.7-2.6,1.1-3.8,1.1c-1.1,0-2-0.3-2.6-0.8S315.8,143.1,316,142z"/>
			<path fill="#D1D3D4" d="M339.8,141.3c0.4-2.3,1.9-5.4,4.5-9.5c-0.8-0.1-1.4-0.2-1.8-0.3l0.1-0.7c1.2,0.1,2,0.2,2.3,0.2
				c2-3,4-5.6,6.1-7.8c2.1-2.2,3.6-3.3,4.6-3.3c0.3,0,0.5,0.1,0.7,0.2c0.2,0.2,0.3,0.4,0.2,0.6c-0.1,0.4-0.5,1.1-1.3,2.1
				c-0.8,1-2,2.3-3.5,3.9c-1.5,1.6-2.7,3.1-3.7,4.4h1.9c2.9,0,5.4-0.1,7.4-0.2l-0.1,0.7c-3.7,0.3-6.7,0.5-8.9,0.5
				c-0.1,0-0.2,0-0.3,0h-0.8c-2.4,3.3-3.8,6.1-4.2,8.6c-0.2,1.2-0.1,2,0.3,2.5s1.1,0.7,2.1,0.7c1.8,0,3.6-0.6,5.5-1.8
				c1.9-1.2,3.7-2.8,5.4-5l0.6,0.4c-1.6,2.3-3.7,4.2-6.1,5.6c-2.4,1.5-4.8,2.2-7.2,2.2C340.8,145.2,339.4,143.9,339.8,141.3z"/>
			<path fill="#D1D3D4" d="M354.2,140.6c0.4-2.4,2.2-4.9,5.5-7.5c3.3-2.6,6.5-3.9,9.4-3.9c2.1,0,3.1,0.8,2.8,2.4
				c-0.3,1.9-1.9,3.6-4.8,5.1c-2.9,1.5-6,2.3-9.2,2.6c-0.2,0.4-0.4,0.9-0.4,1.4c-0.3,2.2,0.8,3.3,3.6,3.3c2.1,0,4.3-0.7,6.7-2
				c2.4-1.3,4.4-3,6-5l0.6,0.4c-1.8,2.3-4,4.2-6.6,5.6c-2.7,1.4-5.3,2.1-7.9,2.1c-2.1,0-3.6-0.4-4.5-1.3
				C354.4,143,354,141.9,354.2,140.6z M358.4,138.5c2.5-0.7,5-1.6,7.4-3c2.4-1.3,3.8-2.7,4-4.2c0.1-0.6-0.2-0.9-0.9-0.9
				c-1.6,0-3.5,0.9-5.7,2.6C361,134.8,359.4,136.6,358.4,138.5z"/>
			<path fill="#D1D3D4" d="M371.2,140.2c0.1-0.7,0.4-1.3,0.8-1.8c0.4-0.5,0.8-0.8,1.2-1c0.4-0.2,0.8-0.3,1.3-0.5
				c0.4-0.1,0.7-0.2,0.8-0.3c2.5-1.8,4.5-3.7,6-5.7l0.1-0.5c0.1-0.9,0.4-1.6,0.9-2c0.5-0.4,1-0.7,1.5-0.7s0.8,0.2,0.7,0.5
				c0,0.1-0.1,0.3-0.3,0.6s-0.3,0.7-0.3,1.1c-0.1,0.8,0.1,2.2,0.7,4.4c0.6,2.1,0.7,3.8,0.5,5.1c-0.1,0.7-0.3,1.4-0.6,1.9
				c2.6-0.3,5-1.8,7.2-4.5l0.4,0.4c-1.6,2.7-4.3,4.3-8,4.7c-1.4,2.2-3.8,3.3-7.1,3.3c-2.3,0-3.9-0.5-4.8-1.5S371,141.6,371.2,140.2z
				 M373.8,140.2c-0.2,1,0.1,1.9,0.7,2.7c0.6,0.8,1.6,1.2,2.9,1.2c1.6,0,2.8-0.6,3.6-1.9c-1.3-0.2-2.5-0.6-3.6-1.2
				c-1-0.6-1.8-1.3-2.3-2C374.3,138.9,373.9,139.3,373.8,140.2z M375.5,137.6c0.9,2.1,2.9,3.4,5.8,3.9c0.2-0.7,0.4-1.3,0.5-1.9
				c0.1-0.7,0.2-1.5,0.1-2.3c0-0.8-0.1-1.7-0.3-2.7c-0.2-1-0.3-1.7-0.3-2.1C379.2,134.7,377.3,136.4,375.5,137.6z"/>
		</g>
	</g>
	<g>
		<path fill="#D1D3D4" d="M171.9,140.5c0-2.2,1.1-4.1,3.4-6c2.3-1.8,5.1-2.8,8.3-3.1c-2.3-1.5-3.4-3.3-3.4-5.5
			c0-1.9,0.9-3.6,2.7-5.1c1.8-1.5,4-2.2,6.7-2.2c3.3,0,4.9,1.2,4.9,3.7c0,1.3-0.4,2.5-1.2,3.6c-0.8,1.1-1.5,1.7-2.3,1.7
			c-0.7,0-1.2-0.4-1.7-1.1c2.5-1.7,3.7-3.3,3.7-4.8c0-0.7-0.3-1.3-0.8-1.8c-0.5-0.4-1.3-0.7-2.3-0.7c-2,0-3.6,0.7-4.8,2.1
			c-1.2,1.4-1.7,3.1-1.7,5c0,2.3,0.9,4.1,2.6,5.3c-2.9,0.4-5.3,1.4-7.2,3.2c-1.9,1.8-2.8,3.6-2.8,5.6c0,1.3,0.5,2.5,1.4,3.5
			c1,1,2.4,1.5,4.4,1.5c3.1,0,6-1.1,8.6-3.4c2.6-2.3,4.1-4.8,4.6-7.7c-1.4,0-3,0.2-4.8,0.5l-1.1,0.2c0.1-1.6,1.7-2.4,4.7-2.4
			c1,0,2.3,0.1,3.8,0.3c1.6,0.2,2.6,0.3,3.1,0.3c-0.5,0.7-1.1,1-1.9,1c-0.7,0-1.6,0-2.6,0c-0.4,3.2-2.2,6.1-5.3,8.6
			c-3.1,2.5-6.5,3.7-10.3,3.7c-2.7,0-4.8-0.6-6.4-1.8C172.7,143.8,171.9,142.3,171.9,140.5z"/>
	</g>
</g>
<g id="Tag">
	<path fill="#A7A9AC" d="M393.4,172c0,3.2-2.4,5.7-5.4,5.7H38c-3,0-5.4-2.6-5.4-5.7v-13.1c0-3.2,2.4-5.7,5.4-5.7h350
		c3,0,5.4,2.6,5.4,5.7V172z"/>
	<g>
		<g>
			<path fill="#58595B" d="M38.3,156.5c0.6-0.1,1.2-0.2,1.8-0.2c0.6-0.1,1.2-0.1,1.9-0.2s1.3-0.1,1.9-0.1c0.6,0,1.3-0.1,1.9-0.1
				c0.9,0,1.7,0,2.5,0.1c0.8,0.1,1.6,0.2,2.3,0.4c0.7,0.2,1.4,0.5,2,0.8c0.6,0.3,1.1,0.7,1.5,1.2c0.4,0.5,0.8,1.1,1,1.7
				c0.2,0.7,0.4,1.4,0.4,2.3c0,0.8-0.1,1.5-0.3,2.3s-0.5,1.4-0.9,2c-0.4,0.6-0.9,1.2-1.4,1.7s-1.2,0.9-1.9,1.3
				c-0.7,0.4-1.5,0.6-2.4,0.8c-0.9,0.2-1.8,0.3-2.8,0.3c-0.5,0-1,0-1.6-0.1c-0.5-0.1-1.1-0.1-1.7-0.3l-1.6,0.2l-0.1,0
				c0-0.3,0.1-0.6,0.1-1.1s0.1-1,0.1-1.6c0-0.6,0.1-1.3,0.1-2c0-0.7,0.1-1.5,0.1-2.3s0.1-1.7,0.1-2.6c0-0.9,0-1.9,0-2.9
				c0-0.2,0-0.4,0-0.5s-0.1-0.3-0.2-0.4s-0.2-0.2-0.4-0.2c-0.2-0.1-0.4-0.1-0.7-0.1c-0.4,0-0.8,0-1.4,0.1L38.3,156.5z M43.3,156.7
				c0,0.2,0,0.5,0,0.9c0,0.4,0,0.9,0,1.5s0,1.2-0.1,1.8c0,0.7-0.1,1.3-0.1,2S43,164.3,43,165c0,0.7-0.1,1.3-0.1,1.9
				c0,0.6-0.1,1.2-0.1,1.6s-0.1,0.9-0.1,1.2c0.5,0.1,1,0.2,1.5,0.2s0.9,0.1,1.4,0.1c0.9,0,1.7-0.1,2.5-0.3s1.4-0.4,1.9-0.7
				s1-0.7,1.4-1.1c0.4-0.4,0.7-0.9,0.9-1.4c0.2-0.5,0.4-1.1,0.5-1.7c0.1-0.6,0.2-1.2,0.2-1.8c0-0.9-0.1-1.8-0.4-2.6
				c-0.3-0.8-0.7-1.4-1.3-2c-0.6-0.6-1.4-1-2.4-1.3c-1-0.3-2.1-0.5-3.5-0.5c-0.3,0-0.7,0-1,0S43.6,156.7,43.3,156.7z"/>
			<path fill="#58595B" d="M60.6,161.7c-0.1,0.5-0.2,1-0.2,1.5s-0.1,1-0.2,1.4c0,0.5-0.1,0.9-0.1,1.3c0,0.4,0,0.8,0,1.1
				c0,0.4,0,0.8,0,1.1s0,0.6,0.1,0.8c0,0.2,0.1,0.4,0.1,0.5s0.1,0.2,0.2,0.3c0.1,0.1,0.2,0.1,0.3,0.1c0.1,0,0.2,0,0.4,0
				c0.3,0,0.5,0,0.9-0.1c0.3-0.1,0.6-0.1,0.9-0.3l0.2,0.3c-0.2,0.1-0.4,0.2-0.7,0.4s-0.6,0.2-0.9,0.3c-0.3,0.1-0.7,0.2-1,0.3
				c-0.3,0.1-0.6,0.1-0.8,0.1c-0.2,0-0.3,0-0.4,0c-0.1,0-0.2-0.1-0.3-0.1s-0.2-0.2-0.3-0.3s-0.1-0.3-0.2-0.6s-0.1-0.6-0.1-1
				s0-0.8,0-1.4c0-0.3,0-0.7,0-1.1c0-0.4,0-0.8,0-1.3s0-0.9,0.1-1.5s0.1-1,0.1-1.6c0-0.1,0.1-0.2,0.1-0.3c0.1-0.1,0.2-0.1,0.3-0.2
				c0.1,0,0.2-0.1,0.3-0.1c0.1,0,0.2,0,0.3,0C59.9,161.5,60.3,161.5,60.6,161.7z M59.9,158.8c-0.2,0-0.4,0-0.5-0.1s-0.3-0.1-0.4-0.2
				c-0.1-0.1-0.2-0.2-0.2-0.3c-0.1-0.1-0.1-0.3-0.1-0.4c0-0.2,0-0.4,0.1-0.5c0.1-0.1,0.2-0.3,0.3-0.4s0.3-0.2,0.4-0.2
				s0.3-0.1,0.5-0.1c0.2,0,0.4,0,0.5,0.1c0.1,0.1,0.3,0.1,0.4,0.2c0.1,0.1,0.2,0.2,0.2,0.3c0.1,0.1,0.1,0.2,0.1,0.4
				c0,0.1,0,0.3-0.1,0.4c-0.1,0.1-0.2,0.3-0.3,0.4c-0.1,0.1-0.3,0.2-0.4,0.3S60.1,158.8,59.9,158.8z"/>
			<path fill="#58595B" d="M72.2,168.6c0,0,0.1,0,0.1,0.1c0.1,0,0.1,0,0.1,0.1s0.1,0.1,0.1,0.1c0,0,0,0.1,0,0.1c0,0,0,0,0,0.1
				c-0.3,0.3-0.6,0.6-1,0.9s-0.7,0.4-1.1,0.6c-0.4,0.2-0.8,0.3-1.2,0.4c-0.4,0.1-0.8,0.1-1.2,0.1c-0.7,0-1.3-0.1-1.8-0.3
				c-0.5-0.2-1-0.5-1.4-0.8c-0.4-0.4-0.7-0.8-0.9-1.3c-0.2-0.5-0.3-1-0.3-1.6c0-0.5,0.1-0.9,0.2-1.4c0.1-0.5,0.3-0.9,0.6-1.3
				c0.2-0.4,0.5-0.8,0.9-1.1s0.8-0.7,1.2-0.9c0.4-0.3,0.9-0.5,1.5-0.6c0.5-0.1,1.1-0.2,1.7-0.2c0.4,0,0.8,0,1.2,0.1
				c0.4,0.1,0.7,0.2,1,0.4c0.3,0.2,0.5,0.4,0.7,0.6c0.2,0.2,0.2,0.5,0.2,0.8c0,0.4-0.2,0.8-0.5,1.1s-0.9,0.6-1.5,0.8
				c-0.6,0.2-1.4,0.4-2.3,0.5c-0.9,0.1-1.8,0.2-2.8,0.3v0.1c0,0.5,0.1,1,0.3,1.5c0.2,0.4,0.4,0.8,0.7,1.2s0.7,0.6,1.1,0.7
				s0.9,0.3,1.4,0.3c0.5,0,1-0.1,1.5-0.3S71.7,169,72.2,168.6z M70.7,163.5c0-0.2,0-0.4-0.1-0.5c-0.1-0.2-0.2-0.3-0.4-0.4
				s-0.3-0.2-0.5-0.3c-0.2-0.1-0.4-0.1-0.7-0.1c-0.4,0-0.7,0-1,0.1c-0.3,0.1-0.6,0.2-0.8,0.4c-0.2,0.2-0.4,0.4-0.6,0.6
				c-0.2,0.2-0.3,0.5-0.4,0.7c-0.1,0.2-0.2,0.5-0.3,0.8c-0.1,0.3-0.1,0.5-0.2,0.8c0.8,0,1.5-0.1,2.1-0.2s1.1-0.2,1.6-0.4
				c0.4-0.2,0.8-0.4,1-0.6S70.7,163.8,70.7,163.5z"/>
			<path fill="#58595B" d="M78.5,156.9c-0.2,0.8-0.4,1.6-0.6,2.5c-0.2,0.9-0.3,1.7-0.4,2.5c0.3,0,0.5,0,0.8,0c0.2,0,0.5,0,0.7,0
				c0.2,0,0.4,0,0.6,0c0.2,0,0.3,0,0.4,0c0.5,0,0.9,0,1.2-0.1c0,0.1,0,0.1,0.1,0.2c0,0.1,0,0.1,0,0.2c0,0.2-0.1,0.3-0.3,0.4
				c-0.2,0.1-0.5,0.1-0.9,0.1c-0.4,0-0.8,0-1.2-0.1c-0.4,0-0.9-0.1-1.5-0.1c-0.1,0.5-0.1,0.9-0.2,1.3c0,0.4-0.1,0.8-0.1,1.2
				s0,0.7-0.1,1.1c0,0.3,0,0.6,0,0.9c0,0.5,0,0.9,0.1,1.2s0.2,0.7,0.3,0.9c0.2,0.2,0.4,0.4,0.6,0.6c0.3,0.1,0.6,0.2,1,0.2
				c0.3,0,0.6,0,1-0.1c0.4-0.1,0.8-0.2,1.2-0.4c0.1,0.1,0.2,0.3,0.3,0.4c-0.3,0.2-0.7,0.3-1,0.5c-0.3,0.1-0.7,0.3-1,0.4
				c-0.3,0.1-0.7,0.2-1,0.2c-0.3,0.1-0.6,0.1-0.9,0.1c-0.4,0-0.7-0.1-1-0.2s-0.6-0.3-0.8-0.6c-0.2-0.3-0.4-0.6-0.5-1.1
				c-0.1-0.4-0.2-1-0.2-1.7c0-0.4,0-0.8,0-1.2c0-0.4,0-0.8,0.1-1.2c0-0.4,0.1-0.8,0.1-1.3c0-0.4,0.1-0.8,0.1-1.2c-0.4,0-0.8,0-1.2,0
				s-0.7,0.1-1,0.1c0,0,0-0.1,0-0.1c0-0.1,0.1-0.2,0.2-0.3c0.1-0.1,0.3-0.1,0.5-0.2c0.2-0.1,0.4-0.1,0.7-0.2c0.3,0,0.6-0.1,0.9-0.1
				c0.1-0.9,0.3-1.7,0.4-2.5c0.1-0.8,0.3-1.5,0.4-2.1c0-0.1,0.1-0.2,0.2-0.3s0.2-0.1,0.3-0.2c0.1,0,0.2-0.1,0.3-0.1
				c0.1,0,0.2,0,0.3,0c0.2,0,0.3,0,0.5,0S78.4,156.8,78.5,156.9z"/>
			<path fill="#58595B" d="M90.6,168.6c0,0,0.1,0,0.1,0.1c0.1,0,0.1,0,0.1,0.1s0.1,0.1,0.1,0.1c0,0,0,0.1,0,0.1c0,0,0,0,0,0.1
				c-0.3,0.3-0.6,0.6-1,0.9s-0.7,0.4-1.1,0.6c-0.4,0.2-0.8,0.3-1.2,0.4c-0.4,0.1-0.8,0.1-1.2,0.1c-0.7,0-1.3-0.1-1.8-0.3
				c-0.5-0.2-1-0.5-1.4-0.8c-0.4-0.4-0.7-0.8-0.9-1.3c-0.2-0.5-0.3-1-0.3-1.6c0-0.5,0.1-0.9,0.2-1.4c0.1-0.5,0.3-0.9,0.6-1.3
				c0.2-0.4,0.5-0.8,0.9-1.1s0.8-0.7,1.2-0.9c0.4-0.3,0.9-0.5,1.5-0.6c0.5-0.1,1.1-0.2,1.7-0.2c0.4,0,0.8,0,1.2,0.1
				c0.4,0.1,0.7,0.2,1,0.4c0.3,0.2,0.5,0.4,0.7,0.6c0.2,0.2,0.2,0.5,0.2,0.8c0,0.4-0.2,0.8-0.5,1.1s-0.9,0.6-1.5,0.8
				c-0.6,0.2-1.4,0.4-2.3,0.5c-0.9,0.1-1.8,0.2-2.8,0.3v0.1c0,0.5,0.1,1,0.3,1.5c0.2,0.4,0.4,0.8,0.7,1.2s0.7,0.6,1.1,0.7
				s0.9,0.3,1.4,0.3c0.5,0,1-0.1,1.5-0.3S90.1,169,90.6,168.6z M89.1,163.5c0-0.2,0-0.4-0.1-0.5c-0.1-0.2-0.2-0.3-0.4-0.4
				s-0.3-0.2-0.5-0.3c-0.2-0.1-0.4-0.1-0.7-0.1c-0.4,0-0.7,0-1,0.1c-0.3,0.1-0.6,0.2-0.8,0.4c-0.2,0.2-0.4,0.4-0.6,0.6
				c-0.2,0.2-0.3,0.5-0.4,0.7c-0.1,0.2-0.2,0.5-0.3,0.8c-0.1,0.3-0.1,0.5-0.2,0.8c0.8,0,1.5-0.1,2.1-0.2s1.1-0.2,1.6-0.4
				c0.4-0.2,0.8-0.4,1-0.6S89.1,163.8,89.1,163.5z"/>
			<path fill="#58595B" d="M96.9,156.9c-0.2,0.8-0.4,1.6-0.6,2.5c-0.2,0.9-0.3,1.7-0.4,2.5c0.3,0,0.5,0,0.8,0c0.2,0,0.5,0,0.7,0
				c0.2,0,0.4,0,0.6,0c0.2,0,0.3,0,0.4,0c0.5,0,0.9,0,1.2-0.1c0,0.1,0,0.1,0.1,0.2c0,0.1,0,0.1,0,0.2c0,0.2-0.1,0.3-0.3,0.4
				c-0.2,0.1-0.5,0.1-0.9,0.1c-0.4,0-0.8,0-1.2-0.1c-0.4,0-0.9-0.1-1.5-0.1c-0.1,0.5-0.1,0.9-0.2,1.3c0,0.4-0.1,0.8-0.1,1.2
				s0,0.7-0.1,1.1c0,0.3,0,0.6,0,0.9c0,0.5,0,0.9,0.1,1.2s0.2,0.7,0.3,0.9c0.2,0.2,0.4,0.4,0.6,0.6c0.3,0.1,0.6,0.2,1,0.2
				c0.3,0,0.6,0,1-0.1c0.4-0.1,0.8-0.2,1.2-0.4c0.1,0.1,0.2,0.3,0.3,0.4c-0.3,0.2-0.7,0.3-1,0.5c-0.3,0.1-0.7,0.3-1,0.4
				c-0.3,0.1-0.7,0.2-1,0.2c-0.3,0.1-0.6,0.1-0.9,0.1c-0.4,0-0.7-0.1-1-0.2s-0.6-0.3-0.8-0.6c-0.2-0.3-0.4-0.6-0.5-1.1
				c-0.1-0.4-0.2-1-0.2-1.7c0-0.4,0-0.8,0-1.2c0-0.4,0-0.8,0.1-1.2c0-0.4,0.1-0.8,0.1-1.3c0-0.4,0.1-0.8,0.1-1.2c-0.4,0-0.8,0-1.2,0
				s-0.7,0.1-1,0.1c0,0,0-0.1,0-0.1c0-0.1,0.1-0.2,0.2-0.3c0.1-0.1,0.3-0.1,0.5-0.2c0.2-0.1,0.4-0.1,0.7-0.2c0.3,0,0.6-0.1,0.9-0.1
				c0.1-0.9,0.3-1.7,0.4-2.5c0.1-0.8,0.3-1.5,0.4-2.1c0-0.1,0.1-0.2,0.2-0.3s0.2-0.1,0.3-0.2c0.1,0,0.2-0.1,0.3-0.1
				c0.1,0,0.2,0,0.3,0c0.2,0,0.3,0,0.5,0S96.8,156.8,96.9,156.9z"/>
			<path fill="#58595B" d="M104.1,161.7c-0.1,0.5-0.2,1-0.2,1.5s-0.1,1-0.2,1.4c0,0.5-0.1,0.9-0.1,1.3c0,0.4,0,0.8,0,1.1
				c0,0.4,0,0.8,0,1.1s0,0.6,0.1,0.8c0,0.2,0.1,0.4,0.1,0.5s0.1,0.2,0.2,0.3c0.1,0.1,0.2,0.1,0.3,0.1c0.1,0,0.2,0,0.4,0
				c0.3,0,0.5,0,0.9-0.1c0.3-0.1,0.6-0.1,0.9-0.3l0.2,0.3c-0.2,0.1-0.4,0.2-0.7,0.4s-0.6,0.2-0.9,0.3c-0.3,0.1-0.7,0.2-1,0.3
				c-0.3,0.1-0.6,0.1-0.8,0.1c-0.2,0-0.3,0-0.4,0c-0.1,0-0.2-0.1-0.3-0.1s-0.2-0.2-0.3-0.3s-0.1-0.3-0.2-0.6s-0.1-0.6-0.1-1
				s0-0.8,0-1.4c0-0.3,0-0.7,0-1.1c0-0.4,0-0.8,0-1.3s0-0.9,0.1-1.5s0.1-1,0.1-1.6c0-0.1,0.1-0.2,0.1-0.3c0.1-0.1,0.2-0.1,0.3-0.2
				c0.1,0,0.2-0.1,0.3-0.1c0.1,0,0.2,0,0.3,0C103.4,161.5,103.8,161.5,104.1,161.7z M103.4,158.8c-0.2,0-0.4,0-0.5-0.1
				s-0.3-0.1-0.4-0.2c-0.1-0.1-0.2-0.2-0.2-0.3c-0.1-0.1-0.1-0.3-0.1-0.4c0-0.2,0-0.4,0.1-0.5c0.1-0.1,0.2-0.3,0.3-0.4
				s0.3-0.2,0.4-0.2s0.3-0.1,0.5-0.1c0.2,0,0.4,0,0.5,0.1c0.1,0.1,0.3,0.1,0.4,0.2c0.1,0.1,0.2,0.2,0.2,0.3c0.1,0.1,0.1,0.2,0.1,0.4
				c0,0.1,0,0.3-0.1,0.4c-0.1,0.1-0.2,0.3-0.3,0.4c-0.1,0.1-0.3,0.2-0.4,0.3S103.6,158.8,103.4,158.8z"/>
			<path fill="#58595B" d="M114.2,164.1c0.2-0.2,0.2-0.5,0.2-0.7c0-0.2,0-0.3-0.1-0.5c-0.1-0.1-0.2-0.3-0.3-0.4
				c-0.1-0.1-0.3-0.2-0.6-0.3c-0.2-0.1-0.5-0.1-0.8-0.1c-0.4,0-0.8,0.1-1.2,0.2s-0.6,0.3-0.9,0.5s-0.5,0.4-0.7,0.7
				c-0.2,0.3-0.3,0.6-0.5,0.9c-0.1,0.3-0.2,0.6-0.3,0.9c-0.1,0.3-0.1,0.6-0.1,0.9c0,0.5,0.1,1,0.3,1.5c0.2,0.4,0.4,0.8,0.7,1.1
				s0.7,0.6,1.1,0.7c0.4,0.2,0.9,0.3,1.3,0.3c0.5,0,1-0.1,1.5-0.3c0.5-0.2,1-0.5,1.5-1c0,0,0.1,0,0.1,0.1s0.1,0,0.1,0.1
				s0.1,0.1,0.1,0.1c0,0,0,0.1,0,0.1c0,0,0,0,0,0l0,0c-0.5,0.7-1.2,1.2-1.9,1.5c-0.7,0.3-1.6,0.5-2.5,0.5c-0.5,0-0.9-0.1-1.3-0.2
				s-0.8-0.2-1.1-0.4c-0.3-0.2-0.6-0.4-0.9-0.7s-0.5-0.5-0.6-0.8s-0.3-0.6-0.4-0.9c-0.1-0.3-0.1-0.7-0.1-1c0-0.4,0.1-0.9,0.2-1.3
				c0.1-0.4,0.3-0.9,0.6-1.3c0.2-0.4,0.5-0.8,0.9-1.2s0.7-0.7,1.2-0.9s0.9-0.5,1.5-0.6s1.1-0.2,1.7-0.2c0.5,0,0.9,0,1.3,0.1
				c0.4,0.1,0.7,0.2,1,0.4c0.3,0.2,0.5,0.3,0.7,0.6s0.2,0.5,0.2,0.7c0,0.2,0,0.3-0.1,0.5c-0.1,0.1-0.2,0.2-0.3,0.3
				c-0.1,0.1-0.3,0.2-0.4,0.2s-0.3,0.1-0.5,0.1c-0.1,0-0.2,0-0.4,0C114.5,164.2,114.3,164.2,114.2,164.1L114.2,164.1z"/>
			<path fill="#58595B" d="M118.8,168.3c0,0.3,0.1,0.6,0.3,0.8s0.4,0.4,0.7,0.6c0.3,0.1,0.6,0.3,0.9,0.3s0.7,0.1,1,0.1
				c0.3,0,0.6,0,0.9-0.1s0.5-0.2,0.7-0.3c0.2-0.1,0.4-0.3,0.5-0.4c0.1-0.2,0.2-0.4,0.2-0.6c0-0.2-0.1-0.4-0.2-0.6
				c-0.1-0.2-0.3-0.3-0.6-0.5s-0.5-0.3-0.8-0.4c-0.3-0.1-0.6-0.2-1-0.4c-0.3-0.1-0.6-0.2-0.9-0.3c-0.3-0.1-0.6-0.2-0.9-0.4
				c-0.3-0.1-0.5-0.3-0.8-0.4c-0.2-0.1-0.4-0.3-0.6-0.5c-0.2-0.2-0.3-0.4-0.4-0.6c-0.1-0.2-0.2-0.5-0.2-0.7c0-0.3,0.1-0.6,0.2-0.8
				c0.1-0.2,0.3-0.5,0.5-0.7c0.2-0.2,0.5-0.4,0.8-0.5c0.3-0.1,0.6-0.3,1-0.4s0.7-0.2,1.1-0.2c0.4,0,0.7-0.1,1.1-0.1
				c0.4,0,0.9,0,1.2,0.1s0.7,0.2,1,0.3s0.5,0.3,0.7,0.5s0.3,0.4,0.3,0.7c0,0.1,0,0.2-0.1,0.3s-0.1,0.2-0.2,0.3
				c-0.1,0.1-0.2,0.2-0.4,0.3c-0.2,0.1-0.4,0.1-0.6,0.1c-0.2,0-0.5,0-0.7-0.1l0-0.1c0.1-0.1,0.1-0.3,0.2-0.4c0-0.1,0-0.2,0-0.3
				c0-0.2-0.1-0.4-0.2-0.5c-0.1-0.1-0.3-0.2-0.5-0.3c-0.2-0.1-0.4-0.1-0.6-0.2c-0.2,0-0.5-0.1-0.7-0.1c-0.4,0-0.7,0-1,0.1
				c-0.3,0.1-0.6,0.2-0.8,0.3c-0.2,0.1-0.4,0.3-0.5,0.5c-0.1,0.2-0.2,0.3-0.2,0.5c0,0.2,0.1,0.4,0.2,0.6c0.2,0.2,0.4,0.4,0.6,0.5
				c0.3,0.2,0.6,0.3,0.9,0.4c0.3,0.1,0.7,0.3,1.1,0.4c0.4,0.2,0.8,0.3,1.2,0.5c0.4,0.2,0.8,0.3,1.1,0.6c0.3,0.2,0.6,0.4,0.8,0.7
				c0.2,0.3,0.3,0.6,0.3,0.9c0,0.4-0.1,0.8-0.4,1.2c-0.2,0.3-0.6,0.6-1,0.9c-0.4,0.2-0.9,0.4-1.4,0.5c-0.5,0.1-1.1,0.2-1.7,0.2
				c-0.3,0-0.6,0-0.9-0.1c-0.3,0-0.6-0.1-0.9-0.2c-0.3-0.1-0.6-0.2-0.8-0.2s-0.5-0.2-0.7-0.3s-0.3-0.3-0.5-0.4
				c-0.1-0.2-0.2-0.3-0.2-0.5c0-0.2,0-0.3,0.1-0.4c0.1-0.1,0.2-0.2,0.4-0.3c0.1-0.1,0.3-0.1,0.5-0.2S118.6,168.3,118.8,168.3
				L118.8,168.3z"/>
			<path fill="#58595B" d="M135.3,158c0-0.2,0-0.3-0.1-0.5s-0.1-0.2-0.2-0.3c-0.1-0.1-0.2-0.1-0.4-0.2c-0.2,0-0.4-0.1-0.7-0.1
				c-0.4,0-0.8,0-1.4,0.1l-0.1-0.6c0.5-0.1,1.1-0.1,1.7-0.2s1.2-0.1,1.9-0.2c0.6-0.1,1.3-0.1,1.9-0.2c0.7,0,1.3-0.1,1.9-0.1
				c0.8,0,1.5,0.1,2.2,0.2c0.7,0.1,1.3,0.3,1.8,0.6c0.5,0.3,0.9,0.6,1.2,1.1c0.3,0.4,0.5,1,0.5,1.7c0,0.8-0.2,1.5-0.5,2.1
				c-0.3,0.6-0.8,1.1-1.4,1.6c-0.6,0.4-1.3,0.8-2.2,1s-1.8,0.3-2.8,0.3c-0.2,0-0.4,0-0.5-0.1c-0.1-0.1-0.1-0.2-0.1-0.4v-0.1
				c0,0,0-0.1,0-0.1c0.8,0,1.5-0.1,2.1-0.2c0.6-0.1,1.1-0.3,1.5-0.5s0.7-0.5,0.9-0.7c0.2-0.3,0.4-0.6,0.5-0.8
				c0.1-0.3,0.2-0.6,0.2-0.9c0-0.3,0.1-0.5,0.1-0.8c0-0.6-0.1-1.1-0.3-1.5c-0.2-0.4-0.5-0.7-0.9-1c-0.4-0.2-0.8-0.4-1.3-0.5
				c-0.5-0.1-1.1-0.1-1.6-0.1c-0.3,0-0.6,0-0.8,0c-0.3,0-0.6,0-0.9,0.1c0,0.3,0,0.8,0,1.3c0,0.5,0,1.2-0.1,1.9
				c0,0.7-0.1,1.5-0.1,2.3c0,0.8-0.1,1.7-0.1,2.6c0,0.9-0.1,1.9-0.1,2.8c0,1-0.1,1.9-0.1,2.9l-2,0.2l-0.1,0c0.1-1.2,0.1-2.4,0.2-3.5
				c0.1-1.1,0.1-2.1,0.1-3.2c0-1,0.1-2.1,0.1-3.1C135.3,160.1,135.3,159,135.3,158z"/>
			<path fill="#58595B" d="M148.5,170.7l-0.1,0c0-0.4,0.1-0.8,0.1-1.3s0.1-1,0.1-1.4c0-0.5,0.1-1,0.1-1.5c0-0.5,0-0.9,0.1-1.3
				c0-0.4,0-0.8,0-1.1s0-0.6,0-0.8c0-0.2,0-0.3,0-0.4c0-0.1-0.1-0.2-0.1-0.3s-0.1-0.1-0.3-0.2s-0.3-0.1-0.4-0.1c-0.1,0-0.2,0-0.3,0
				c-0.1,0-0.2,0-0.3,0c-0.1,0-0.3,0-0.4,0.1s-0.3,0.1-0.5,0.1l-0.1-0.5c0.9-0.3,1.6-0.4,2.2-0.5c0.6-0.1,0.9-0.2,1.1-0.2
				c0.4,0,0.6,0.1,0.8,0.2c0.2,0.2,0.2,0.4,0.2,0.7c0,0,0,0.1,0,0.3c0,0.1,0,0.3,0,0.6s0,0.5-0.1,0.8c0,0.3-0.1,0.6-0.1,1
				c0,0.3-0.1,0.7-0.1,1.1s-0.1,0.8-0.1,1.1l0.1,0c0.3-0.8,0.6-1.6,0.9-2.3c0.3-0.7,0.7-1.3,1.1-1.9c0.4-0.5,0.9-0.9,1.4-1.2
				s1-0.5,1.6-0.5c0.2,0,0.4,0,0.6,0.1s0.3,0.1,0.5,0.2s0.2,0.2,0.3,0.3c0.1,0.1,0.1,0.3,0.1,0.4c0,0.2-0.1,0.4-0.2,0.5
				s-0.3,0.3-0.5,0.5H156c-0.2-0.1-0.4-0.3-0.7-0.3c-0.2-0.1-0.4-0.1-0.7-0.1c-0.2,0-0.5,0-0.7,0.1c-0.2,0.1-0.4,0.2-0.6,0.3
				c-0.3,0.2-0.6,0.5-0.9,0.9c-0.3,0.4-0.5,0.8-0.7,1.2c-0.2,0.4-0.4,0.9-0.6,1.4c-0.2,0.5-0.3,1-0.5,1.4c-0.1,0.5-0.2,0.9-0.3,1.3
				c-0.1,0.4-0.1,0.7-0.2,1L148.5,170.7z"/>
			<path fill="#58595B" d="M156.8,166.9c0-0.4,0.1-0.9,0.2-1.3c0.1-0.4,0.3-0.9,0.5-1.3c0.2-0.4,0.5-0.8,0.8-1.2
				c0.3-0.4,0.7-0.7,1.1-0.9c0.4-0.3,0.9-0.5,1.4-0.6c0.5-0.2,1.1-0.2,1.7-0.2c0.7,0,1.3,0.1,1.9,0.3s1,0.5,1.4,0.9
				c0.4,0.4,0.6,0.8,0.8,1.3s0.3,1,0.3,1.5c0,0.4-0.1,0.9-0.2,1.3s-0.3,0.9-0.5,1.3c-0.2,0.4-0.5,0.8-0.8,1.2
				c-0.3,0.4-0.7,0.7-1.1,0.9c-0.4,0.3-0.9,0.5-1.4,0.6c-0.5,0.2-1.1,0.2-1.7,0.2c-0.7,0-1.3-0.1-1.9-0.3s-1-0.5-1.4-0.9
				c-0.4-0.4-0.6-0.8-0.8-1.3S156.8,167.4,156.8,166.9z M158.8,166.3c0,0.3,0,0.6,0.1,0.9s0.1,0.6,0.3,0.9c0.1,0.3,0.3,0.5,0.4,0.8
				c0.2,0.2,0.4,0.4,0.6,0.6c0.2,0.2,0.5,0.3,0.8,0.4c0.3,0.1,0.6,0.2,1,0.2c0.4,0,0.8-0.1,1.1-0.2c0.3-0.1,0.6-0.3,0.8-0.5
				s0.4-0.5,0.6-0.8c0.1-0.3,0.3-0.6,0.4-0.9s0.1-0.6,0.2-0.9c0-0.3,0.1-0.6,0.1-0.8c0-0.3,0-0.6-0.1-0.9s-0.1-0.6-0.3-0.9
				c-0.1-0.3-0.3-0.5-0.4-0.8c-0.2-0.2-0.4-0.4-0.6-0.6c-0.2-0.2-0.5-0.3-0.8-0.4s-0.6-0.2-1-0.2c-0.4,0-0.8,0.1-1.1,0.2
				c-0.3,0.1-0.6,0.3-0.8,0.5c-0.2,0.2-0.4,0.5-0.6,0.8s-0.3,0.6-0.4,0.9s-0.1,0.6-0.2,0.9C158.8,165.8,158.8,166.1,158.8,166.3z"/>
			<path fill="#58595B" d="M172.5,161.9c0.3,0,0.5,0,0.8,0c0.3,0,0.5,0,0.7,0c0.2,0,0.4,0,0.6,0c0.2,0,0.3,0,0.5,0
				c0.3,0,0.5,0,0.7,0c0.2,0,0.4,0,0.6,0c0.1,0.2,0.1,0.3,0.1,0.4c0,0.2-0.1,0.3-0.3,0.4c-0.2,0.1-0.5,0.1-0.9,0.1s-0.8,0-1.3,0
				c-0.5,0-1-0.1-1.5-0.1c0,0.5,0,1.1-0.1,1.6c0,0.6-0.1,1.2-0.1,1.8s-0.1,1.3-0.2,1.9c-0.1,0.7-0.2,1.3-0.3,1.9
				c-0.1,0.6-0.2,1.2-0.4,1.8c-0.2,0.6-0.3,1.1-0.5,1.5c-0.3,0.7-0.7,1.3-1.1,1.8s-0.8,0.9-1.3,1.2s-0.9,0.5-1.4,0.6
				c-0.5,0.1-1,0.2-1.5,0.2c-0.4,0-0.8,0-1.2-0.1c-0.4-0.1-0.7-0.2-0.9-0.3c-0.3-0.1-0.5-0.3-0.6-0.4s-0.2-0.3-0.2-0.5
				c0-0.1,0-0.2,0.1-0.3c0.1-0.1,0.1-0.2,0.3-0.3s0.2-0.1,0.4-0.2s0.3-0.1,0.5-0.1c0.2,0.2,0.3,0.4,0.5,0.6c0.2,0.2,0.4,0.3,0.6,0.4
				s0.4,0.2,0.7,0.2s0.5,0.1,0.7,0.1c0.6,0,1.2-0.2,1.6-0.5c0.4-0.3,0.8-0.8,1.1-1.3c0.3-0.6,0.5-1.3,0.7-2.1
				c0.2-0.8,0.3-1.7,0.4-2.7c0.1-1,0.2-2.1,0.2-3.2c0-1.2,0.1-2.4,0.1-3.7c-0.5,0-1,0-1.4,0c-0.4,0-0.8,0.1-1.1,0.2c0,0,0-0.1,0-0.1
				c0-0.1,0.1-0.2,0.2-0.3c0.1-0.1,0.3-0.2,0.5-0.2c0.2-0.1,0.5-0.1,0.8-0.2c0.3,0,0.7-0.1,1.1-0.1c0-0.4,0-0.8,0.1-1.1
				c0-0.4,0.1-0.7,0.1-1.1s0.1-0.7,0.2-1.1c0.1-0.4,0.2-0.7,0.3-1.1c0.1-0.5,0.3-0.9,0.6-1.3c0.2-0.4,0.5-0.7,0.8-1.1s0.6-0.6,1-0.8
				c0.3-0.2,0.7-0.4,1.1-0.5c0.4-0.1,0.7-0.2,1.1-0.3s0.7-0.1,1.1-0.1c0.5,0,1,0.1,1.4,0.2c0.4,0.1,0.8,0.2,1.1,0.4
				c0.3,0.2,0.5,0.4,0.7,0.6c0.2,0.2,0.2,0.4,0.2,0.7c0,0.2,0,0.3-0.1,0.5c-0.1,0.1-0.2,0.3-0.3,0.4c-0.1,0.1-0.3,0.2-0.4,0.2
				c-0.2,0.1-0.4,0.1-0.5,0.1c-0.3,0-0.5,0-0.8-0.1l0-0.1c0.1-0.2,0.2-0.3,0.2-0.5c0.1-0.1,0.1-0.3,0.1-0.4c0-0.2-0.1-0.4-0.2-0.5
				c-0.1-0.1-0.2-0.3-0.4-0.4c-0.2-0.1-0.4-0.2-0.6-0.2c-0.2,0-0.4-0.1-0.6-0.1c-0.6,0-1.1,0.1-1.6,0.3c-0.4,0.2-0.8,0.5-1.1,0.9
				s-0.5,0.8-0.7,1.3c-0.2,0.5-0.3,1-0.4,1.6c-0.1,0.6-0.1,1.2-0.2,1.8C172.5,160.6,172.5,161.2,172.5,161.9z"/>
			<path fill="#58595B" d="M184.5,168.6c0,0,0.1,0,0.1,0.1c0.1,0,0.1,0,0.1,0.1s0.1,0.1,0.1,0.1c0,0,0,0.1,0,0.1c0,0,0,0,0,0.1
				c-0.3,0.3-0.6,0.6-1,0.9s-0.7,0.4-1.1,0.6c-0.4,0.2-0.8,0.3-1.2,0.4c-0.4,0.1-0.8,0.1-1.2,0.1c-0.7,0-1.3-0.1-1.8-0.3
				c-0.5-0.2-1-0.5-1.4-0.8c-0.4-0.4-0.7-0.8-0.9-1.3c-0.2-0.5-0.3-1-0.3-1.6c0-0.5,0.1-0.9,0.2-1.4c0.1-0.5,0.3-0.9,0.6-1.3
				c0.2-0.4,0.5-0.8,0.9-1.1s0.8-0.7,1.2-0.9c0.4-0.3,0.9-0.5,1.5-0.6c0.5-0.1,1.1-0.2,1.7-0.2c0.4,0,0.8,0,1.2,0.1
				c0.4,0.1,0.7,0.2,1,0.4c0.3,0.2,0.5,0.4,0.7,0.6c0.2,0.2,0.2,0.5,0.2,0.8c0,0.4-0.2,0.8-0.5,1.1s-0.9,0.6-1.5,0.8
				c-0.6,0.2-1.4,0.4-2.3,0.5c-0.9,0.1-1.8,0.2-2.8,0.3v0.1c0,0.5,0.1,1,0.3,1.5c0.2,0.4,0.4,0.8,0.7,1.2s0.7,0.6,1.1,0.7
				s0.9,0.3,1.4,0.3c0.5,0,1-0.1,1.5-0.3S184,169,184.5,168.6z M183,163.5c0-0.2,0-0.4-0.1-0.5c-0.1-0.2-0.2-0.3-0.4-0.4
				s-0.3-0.2-0.5-0.3c-0.2-0.1-0.4-0.1-0.7-0.1c-0.4,0-0.7,0-1,0.1c-0.3,0.1-0.6,0.2-0.8,0.4c-0.2,0.2-0.4,0.4-0.6,0.6
				c-0.2,0.2-0.3,0.5-0.4,0.7c-0.1,0.2-0.2,0.5-0.3,0.8c-0.1,0.3-0.1,0.5-0.2,0.8c0.8,0,1.5-0.1,2.1-0.2s1.1-0.2,1.6-0.4
				c0.4-0.2,0.8-0.4,1-0.6S183,163.8,183,163.5z"/>
			<path fill="#58595B" d="M187.8,168.3c0,0.3,0.1,0.6,0.3,0.8s0.4,0.4,0.7,0.6c0.3,0.1,0.6,0.3,0.9,0.3s0.7,0.1,1,0.1
				c0.3,0,0.6,0,0.9-0.1s0.5-0.2,0.7-0.3c0.2-0.1,0.4-0.3,0.5-0.4c0.1-0.2,0.2-0.4,0.2-0.6c0-0.2-0.1-0.4-0.2-0.6
				c-0.1-0.2-0.3-0.3-0.6-0.5s-0.5-0.3-0.8-0.4c-0.3-0.1-0.6-0.2-1-0.4c-0.3-0.1-0.6-0.2-0.9-0.3c-0.3-0.1-0.6-0.2-0.9-0.4
				c-0.3-0.1-0.5-0.3-0.8-0.4c-0.2-0.1-0.4-0.3-0.6-0.5c-0.2-0.2-0.3-0.4-0.4-0.6c-0.1-0.2-0.2-0.5-0.2-0.7c0-0.3,0.1-0.6,0.2-0.8
				c0.1-0.2,0.3-0.5,0.5-0.7c0.2-0.2,0.5-0.4,0.8-0.5c0.3-0.1,0.6-0.3,1-0.4s0.7-0.2,1.1-0.2c0.4,0,0.7-0.1,1.1-0.1
				c0.4,0,0.9,0,1.2,0.1s0.7,0.2,1,0.3s0.5,0.3,0.7,0.5s0.3,0.4,0.3,0.7c0,0.1,0,0.2-0.1,0.3s-0.1,0.2-0.2,0.3
				c-0.1,0.1-0.2,0.2-0.4,0.3c-0.2,0.1-0.4,0.1-0.6,0.1c-0.2,0-0.5,0-0.7-0.1l0-0.1c0.1-0.1,0.1-0.3,0.2-0.4c0-0.1,0-0.2,0-0.3
				c0-0.2-0.1-0.4-0.2-0.5c-0.1-0.1-0.3-0.2-0.5-0.3c-0.2-0.1-0.4-0.1-0.6-0.2c-0.2,0-0.5-0.1-0.7-0.1c-0.4,0-0.7,0-1,0.1
				c-0.3,0.1-0.6,0.2-0.8,0.3c-0.2,0.1-0.4,0.3-0.5,0.5c-0.1,0.2-0.2,0.3-0.2,0.5c0,0.2,0.1,0.4,0.2,0.6c0.2,0.2,0.4,0.4,0.6,0.5
				c0.3,0.2,0.6,0.3,0.9,0.4c0.3,0.1,0.7,0.3,1.1,0.4c0.4,0.2,0.8,0.3,1.2,0.5c0.4,0.2,0.8,0.3,1.1,0.6c0.3,0.2,0.6,0.4,0.8,0.7
				c0.2,0.3,0.3,0.6,0.3,0.9c0,0.4-0.1,0.8-0.4,1.2c-0.2,0.3-0.6,0.6-1,0.9c-0.4,0.2-0.9,0.4-1.4,0.5c-0.5,0.1-1.1,0.2-1.7,0.2
				c-0.3,0-0.6,0-0.9-0.1c-0.3,0-0.6-0.1-0.9-0.2c-0.3-0.1-0.6-0.2-0.8-0.2s-0.5-0.2-0.7-0.3s-0.3-0.3-0.5-0.4
				c-0.1-0.2-0.2-0.3-0.2-0.5c0-0.2,0-0.3,0.1-0.4c0.1-0.1,0.2-0.2,0.4-0.3c0.1-0.1,0.3-0.1,0.5-0.2S187.5,168.3,187.8,168.3
				L187.8,168.3z"/>
			<path fill="#58595B" d="M197.6,168.3c0,0.3,0.1,0.6,0.3,0.8s0.4,0.4,0.7,0.6c0.3,0.1,0.6,0.3,0.9,0.3s0.7,0.1,1,0.1
				c0.3,0,0.6,0,0.9-0.1s0.5-0.2,0.7-0.3c0.2-0.1,0.4-0.3,0.5-0.4c0.1-0.2,0.2-0.4,0.2-0.6c0-0.2-0.1-0.4-0.2-0.6
				c-0.1-0.2-0.3-0.3-0.6-0.5s-0.5-0.3-0.8-0.4c-0.3-0.1-0.6-0.2-1-0.4c-0.3-0.1-0.6-0.2-0.9-0.3c-0.3-0.1-0.6-0.2-0.9-0.4
				c-0.3-0.1-0.5-0.3-0.8-0.4c-0.2-0.1-0.4-0.3-0.6-0.5c-0.2-0.2-0.3-0.4-0.4-0.6c-0.1-0.2-0.2-0.5-0.2-0.7c0-0.3,0.1-0.6,0.2-0.8
				c0.1-0.2,0.3-0.5,0.5-0.7c0.2-0.2,0.5-0.4,0.8-0.5c0.3-0.1,0.6-0.3,1-0.4s0.7-0.2,1.1-0.2c0.4,0,0.7-0.1,1.1-0.1
				c0.4,0,0.9,0,1.2,0.1s0.7,0.2,1,0.3s0.5,0.3,0.7,0.5s0.3,0.4,0.3,0.7c0,0.1,0,0.2-0.1,0.3s-0.1,0.2-0.2,0.3
				c-0.1,0.1-0.2,0.2-0.4,0.3c-0.2,0.1-0.4,0.1-0.6,0.1c-0.2,0-0.5,0-0.7-0.1l0-0.1c0.1-0.1,0.1-0.3,0.2-0.4c0-0.1,0-0.2,0-0.3
				c0-0.2-0.1-0.4-0.2-0.5c-0.1-0.1-0.3-0.2-0.5-0.3c-0.2-0.1-0.4-0.1-0.6-0.2c-0.2,0-0.5-0.1-0.7-0.1c-0.4,0-0.7,0-1,0.1
				c-0.3,0.1-0.6,0.2-0.8,0.3c-0.2,0.1-0.4,0.3-0.5,0.5c-0.1,0.2-0.2,0.3-0.2,0.5c0,0.2,0.1,0.4,0.2,0.6c0.2,0.2,0.4,0.4,0.6,0.5
				c0.3,0.2,0.6,0.3,0.9,0.4c0.3,0.1,0.7,0.3,1.1,0.4c0.4,0.2,0.8,0.3,1.2,0.5c0.4,0.2,0.8,0.3,1.1,0.6c0.3,0.2,0.6,0.4,0.8,0.7
				c0.2,0.3,0.3,0.6,0.3,0.9c0,0.4-0.1,0.8-0.4,1.2c-0.2,0.3-0.6,0.6-1,0.9c-0.4,0.2-0.9,0.4-1.4,0.5c-0.5,0.1-1.1,0.2-1.7,0.2
				c-0.3,0-0.6,0-0.9-0.1c-0.3,0-0.6-0.1-0.9-0.2c-0.3-0.1-0.6-0.2-0.8-0.2s-0.5-0.2-0.7-0.3s-0.3-0.3-0.5-0.4
				c-0.1-0.2-0.2-0.3-0.2-0.5c0-0.2,0-0.3,0.1-0.4c0.1-0.1,0.2-0.2,0.4-0.3c0.1-0.1,0.3-0.1,0.5-0.2S197.3,168.3,197.6,168.3
				L197.6,168.3z"/>
			<path fill="#58595B" d="M209.4,161.7c-0.1,0.5-0.2,1-0.2,1.5s-0.1,1-0.2,1.4c0,0.5-0.1,0.9-0.1,1.3c0,0.4,0,0.8,0,1.1
				c0,0.4,0,0.8,0,1.1s0,0.6,0.1,0.8c0,0.2,0.1,0.4,0.1,0.5s0.1,0.2,0.2,0.3c0.1,0.1,0.2,0.1,0.3,0.1c0.1,0,0.2,0,0.4,0
				c0.3,0,0.5,0,0.9-0.1c0.3-0.1,0.6-0.1,0.9-0.3l0.2,0.3c-0.2,0.1-0.4,0.2-0.7,0.4s-0.6,0.2-0.9,0.3c-0.3,0.1-0.7,0.2-1,0.3
				c-0.3,0.1-0.6,0.1-0.8,0.1c-0.2,0-0.3,0-0.4,0c-0.1,0-0.2-0.1-0.3-0.1s-0.2-0.2-0.3-0.3s-0.1-0.3-0.2-0.6s-0.1-0.6-0.1-1
				s0-0.8,0-1.4c0-0.3,0-0.7,0-1.1c0-0.4,0-0.8,0-1.3s0-0.9,0.1-1.5s0.1-1,0.1-1.6c0-0.1,0.1-0.2,0.1-0.3c0.1-0.1,0.2-0.1,0.3-0.2
				c0.1,0,0.2-0.1,0.3-0.1c0.1,0,0.2,0,0.3,0C208.7,161.5,209,161.5,209.4,161.7z M208.6,158.8c-0.2,0-0.4,0-0.5-0.1
				s-0.3-0.1-0.4-0.2c-0.1-0.1-0.2-0.2-0.2-0.3c-0.1-0.1-0.1-0.3-0.1-0.4c0-0.2,0-0.4,0.1-0.5c0.1-0.1,0.2-0.3,0.3-0.4
				s0.3-0.2,0.4-0.2s0.3-0.1,0.5-0.1c0.2,0,0.4,0,0.5,0.1c0.1,0.1,0.3,0.1,0.4,0.2c0.1,0.1,0.2,0.2,0.2,0.3c0.1,0.1,0.1,0.2,0.1,0.4
				c0,0.1,0,0.3-0.1,0.4c-0.1,0.1-0.2,0.3-0.3,0.4c-0.1,0.1-0.3,0.2-0.4,0.3S208.9,158.8,208.6,158.8z"/>
			<path fill="#58595B" d="M212.5,166.9c0-0.4,0.1-0.9,0.2-1.3c0.1-0.4,0.3-0.9,0.5-1.3c0.2-0.4,0.5-0.8,0.8-1.2
				c0.3-0.4,0.7-0.7,1.1-0.9c0.4-0.3,0.9-0.5,1.4-0.6c0.5-0.2,1.1-0.2,1.7-0.2c0.7,0,1.3,0.1,1.9,0.3s1,0.5,1.4,0.9
				c0.4,0.4,0.6,0.8,0.8,1.3s0.3,1,0.3,1.5c0,0.4-0.1,0.9-0.2,1.3s-0.3,0.9-0.5,1.3c-0.2,0.4-0.5,0.8-0.8,1.2
				c-0.3,0.4-0.7,0.7-1.1,0.9c-0.4,0.3-0.9,0.5-1.4,0.6c-0.5,0.2-1.1,0.2-1.7,0.2c-0.7,0-1.3-0.1-1.9-0.3s-1-0.5-1.4-0.9
				c-0.4-0.4-0.6-0.8-0.8-1.3S212.5,167.4,212.5,166.9z M214.5,166.3c0,0.3,0,0.6,0.1,0.9s0.1,0.6,0.3,0.9c0.1,0.3,0.3,0.5,0.4,0.8
				c0.2,0.2,0.4,0.4,0.6,0.6c0.2,0.2,0.5,0.3,0.8,0.4c0.3,0.1,0.6,0.2,1,0.2c0.4,0,0.8-0.1,1.1-0.2c0.3-0.1,0.6-0.3,0.8-0.5
				s0.4-0.5,0.6-0.8c0.1-0.3,0.3-0.6,0.4-0.9s0.1-0.6,0.2-0.9c0-0.3,0.1-0.6,0.1-0.8c0-0.3,0-0.6-0.1-0.9s-0.1-0.6-0.3-0.9
				c-0.1-0.3-0.3-0.5-0.4-0.8c-0.2-0.2-0.4-0.4-0.6-0.6c-0.2-0.2-0.5-0.3-0.8-0.4s-0.6-0.2-1-0.2c-0.4,0-0.8,0.1-1.1,0.2
				c-0.3,0.1-0.6,0.3-0.8,0.5c-0.2,0.2-0.4,0.5-0.6,0.8s-0.3,0.6-0.4,0.9s-0.1,0.6-0.2,0.9C214.5,165.8,214.5,166.1,214.5,166.3z"/>
			<path fill="#58595B" d="M226.1,163.3c0-0.2,0-0.3,0-0.4c0-0.1-0.1-0.2-0.2-0.3c-0.1-0.1-0.2-0.1-0.3-0.1c-0.1,0-0.2,0-0.4,0
				c-0.2,0-0.4,0-0.7,0.1c-0.3,0-0.6,0.1-0.9,0.2l-0.1-0.5c0.4-0.1,0.8-0.2,1.1-0.3c0.4-0.1,0.7-0.2,1-0.2c0.3-0.1,0.6-0.1,0.8-0.1
				c0.2,0,0.4-0.1,0.5-0.1c0.3,0,0.6,0.1,0.7,0.2c0.2,0.1,0.3,0.4,0.3,0.8c0,0,0,0.1,0,0.3c0,0.2,0,0.4,0,0.6c0,0.2,0,0.5-0.1,0.8
				c0,0.3-0.1,0.6-0.1,1c0,0.3-0.1,0.7-0.1,1.1s-0.1,0.7-0.1,1.1l0,0c0.4-1.1,0.9-2,1.3-2.8c0.5-0.8,1-1.4,1.5-1.8s1-0.8,1.5-1
				c0.5-0.2,1-0.3,1.4-0.3c0.3,0,0.6,0,0.9,0.1s0.5,0.2,0.8,0.4c0.2,0.2,0.4,0.4,0.5,0.8s0.2,0.7,0.2,1.1c0,0.1,0,0.3,0,0.5
				c0,0.2,0,0.5-0.1,0.7s-0.1,0.5-0.1,0.8s-0.1,0.6-0.1,0.9s-0.1,0.6-0.1,0.8c0,0.3,0,0.5,0,0.7c0,0.3,0,0.6,0.1,0.8
				s0.1,0.4,0.2,0.5c0.1,0.1,0.2,0.2,0.3,0.2c0.1,0,0.3,0.1,0.5,0.1c0.3,0,0.6,0,0.9-0.1c0.3-0.1,0.6-0.1,0.9-0.3l0.2,0.3
				c-0.2,0.1-0.4,0.2-0.8,0.4c-0.3,0.1-0.6,0.2-1,0.3c-0.3,0.1-0.7,0.2-1,0.3c-0.3,0.1-0.6,0.1-0.9,0.1c-0.3,0-0.5-0.1-0.7-0.2
				c-0.2-0.1-0.3-0.3-0.4-0.5c-0.1-0.2-0.1-0.5-0.2-0.7c0-0.3,0-0.6,0-0.9c0-0.4,0-0.8,0.1-1.2s0.1-0.8,0.1-1.2s0.1-0.7,0.1-1
				c0-0.3,0.1-0.6,0.1-0.7c0-0.5-0.1-0.9-0.4-1.1c-0.2-0.2-0.6-0.4-1-0.4c-0.3,0-0.7,0.1-1,0.3s-0.7,0.5-1.1,0.9
				c-0.3,0.4-0.7,0.8-1,1.3s-0.6,1-0.9,1.6c-0.3,0.6-0.5,1.2-0.6,1.8c-0.2,0.6-0.3,1.3-0.3,1.9l-1.7,0.2l-0.1,0
				c0-0.4,0.1-0.8,0.1-1.3s0.1-1,0.1-1.4c0-0.5,0.1-1,0.1-1.5c0-0.5,0-0.9,0.1-1.3c0-0.4,0-0.8,0-1.1S226.1,163.5,226.1,163.3z"/>
			<path fill="#58595B" d="M245.9,164.1c0-0.3-0.1-0.6-0.2-0.9c-0.1-0.2-0.3-0.4-0.6-0.6s-0.5-0.3-0.8-0.3s-0.6-0.1-0.9-0.1
				c-0.4,0-0.7,0-1,0.1s-0.5,0.2-0.7,0.3c-0.2,0.1-0.3,0.2-0.4,0.4c-0.1,0.2-0.1,0.3-0.1,0.5c0,0.2,0,0.4,0.1,0.6s0.2,0.4,0.4,0.6
				l0,0.1c-0.3,0.1-0.6,0.2-0.9,0.2c-0.2,0-0.4,0-0.5-0.1c-0.2,0-0.3-0.1-0.4-0.2c-0.1-0.1-0.2-0.2-0.3-0.3
				c-0.1-0.1-0.1-0.3-0.1-0.4c0-0.2,0.1-0.5,0.2-0.7c0.2-0.2,0.4-0.4,0.6-0.6c0.3-0.2,0.6-0.3,0.9-0.5c0.3-0.1,0.7-0.3,1.1-0.4
				s0.7-0.2,1.1-0.2s0.7-0.1,1-0.1c0.6,0,1.1,0.1,1.5,0.2c0.4,0.1,0.7,0.3,1,0.5c0.3,0.2,0.4,0.5,0.6,0.8c0.1,0.3,0.2,0.7,0.2,1.1
				c0,0.3,0,0.6,0,0.9c0,0.3-0.1,0.7-0.1,1c0,0.4-0.1,0.7-0.1,1.1c0,0.4,0,0.8,0,1.2c0,0.6,0.1,1.1,0.4,1.4c0.3,0.3,0.7,0.5,1.2,0.5
				c0.4,0,0.9-0.1,1.4-0.4l0.2,0.3c-0.4,0.3-0.8,0.5-1.2,0.6c-0.4,0.1-0.9,0.2-1.4,0.2c-0.4,0-0.7,0-1-0.1c-0.3-0.1-0.6-0.2-0.8-0.4
				c-0.2-0.2-0.4-0.4-0.5-0.7c-0.1-0.3-0.2-0.6-0.2-1c0-0.1,0-0.2,0-0.3c0-0.1,0-0.2,0.1-0.3h0c-0.2,0.4-0.5,0.7-0.8,1.1
				c-0.3,0.4-0.7,0.7-1,0.9s-0.8,0.5-1.2,0.7c-0.4,0.2-0.9,0.3-1.3,0.3c-0.4,0-0.7-0.1-1-0.2c-0.3-0.1-0.6-0.2-0.8-0.4
				c-0.2-0.2-0.4-0.4-0.5-0.6s-0.2-0.5-0.2-0.8c0-0.4,0.1-0.7,0.3-1c0.2-0.3,0.4-0.6,0.7-0.8c0.3-0.2,0.7-0.4,1.1-0.6
				c0.4-0.2,0.9-0.3,1.4-0.4c0.5-0.1,1.1-0.2,1.6-0.3c0.6-0.1,1.2-0.1,1.8-0.1c0-0.3,0.1-0.5,0.1-0.8
				C245.9,164.6,245.9,164.4,245.9,164.1z M240.9,168.4c0,0.2,0,0.3,0.1,0.5c0,0.2,0.1,0.3,0.2,0.4c0.1,0.1,0.2,0.2,0.4,0.3
				c0.2,0.1,0.3,0.1,0.6,0.1c0.2,0,0.5,0,0.8-0.1c0.3-0.1,0.5-0.2,0.8-0.4c0.3-0.2,0.5-0.3,0.7-0.6s0.4-0.5,0.6-0.7
				c0.2-0.3,0.3-0.5,0.5-0.8c0.1-0.3,0.2-0.6,0.2-0.9c-0.4,0-0.8,0-1.2,0.1c-0.4,0-0.8,0.1-1.1,0.1c-0.4,0.1-0.7,0.2-1,0.3
				s-0.6,0.2-0.8,0.4c-0.2,0.2-0.4,0.4-0.5,0.6C241,167.9,240.9,168.1,240.9,168.4z"/>
			<path fill="#58595B" d="M255.2,153.5c-0.1,0.7-0.2,1.5-0.3,2.2c-0.1,0.8-0.2,1.5-0.3,2.3c-0.1,0.8-0.2,1.5-0.3,2.3
				c-0.1,0.8-0.2,1.5-0.2,2.3c-0.1,0.8-0.1,1.5-0.1,2.2c0,0.7,0,1.4,0,2.1c0,0.4,0,0.8,0,1.1c0,0.3,0,0.6,0.1,0.8
				c0,0.2,0.1,0.4,0.1,0.5s0.1,0.2,0.2,0.3c0.1,0.1,0.2,0.1,0.3,0.1c0.1,0,0.2,0,0.4,0c0.3,0,0.5,0,0.9-0.1c0.3-0.1,0.6-0.1,0.9-0.3
				l0.2,0.3c-0.2,0.1-0.4,0.2-0.7,0.4c-0.3,0.1-0.6,0.2-0.9,0.3s-0.7,0.2-1,0.3s-0.6,0.1-0.8,0.1c-0.3,0-0.5-0.1-0.7-0.2
				s-0.3-0.3-0.4-0.6c-0.1-0.3-0.1-0.6-0.2-1c0-0.4,0-0.9,0-1.5c0-0.2,0-0.5,0-0.9s0-0.9,0.1-1.4s0.1-1.1,0.1-1.8s0.1-1.3,0.1-2
				s0.1-1.4,0.1-2.1s0.1-1.4,0.1-2c0-0.7,0.1-1.3,0.1-1.9s0.1-1.1,0.1-1.5c0-0.1,0-0.2,0.1-0.3c0.1-0.1,0.2-0.1,0.3-0.2
				c0.1,0,0.2-0.1,0.4-0.1c0.1,0,0.3,0,0.4,0C254.4,153.3,254.8,153.4,255.2,153.5z"/>
			<path fill="#58595B" d="M273,155.7c0.7,0,1.4,0.1,2,0.2s1.1,0.2,1.6,0.4c0.4,0.1,0.8,0.3,1,0.5s0.4,0.3,0.4,0.5
				c0,0.3,0,0.7,0,1.1c0,0.5-0.1,1-0.1,1.7l-0.7,0c0-0.1,0-0.1,0-0.2s0-0.1,0-0.2c0-0.3,0-0.6-0.1-0.8s-0.2-0.5-0.4-0.8
				c-0.2-0.2-0.5-0.5-0.8-0.6c-0.3-0.2-0.6-0.3-1-0.5s-0.7-0.2-1.2-0.3c-0.4-0.1-0.8-0.1-1.3-0.1c-0.7,0-1.4,0.1-2,0.3
				c-0.6,0.2-1.1,0.4-1.6,0.7c-0.5,0.3-0.9,0.7-1.2,1.1c-0.3,0.4-0.6,0.9-0.9,1.4c-0.2,0.5-0.4,1-0.5,1.6c-0.1,0.5-0.2,1.1-0.2,1.7
				c0,0.7,0.1,1.3,0.2,1.9c0.1,0.6,0.3,1.1,0.6,1.6c0.3,0.5,0.6,0.9,1,1.3c0.4,0.4,0.8,0.7,1.3,1c0.5,0.3,1,0.5,1.5,0.6
				c0.5,0.1,1.1,0.2,1.7,0.2c0.4,0,0.8,0,1.3-0.1c0.4-0.1,0.9-0.2,1.3-0.3c0.5-0.2,0.9-0.3,1.4-0.6s0.9-0.5,1.4-0.8
				c0,0,0.1,0,0.2,0.1s0.1,0.1,0.2,0.1c0,0,0.1,0.1,0.1,0.1s0.1,0.1,0.1,0.1c0,0,0,0.1-0.1,0.1c-0.5,0.5-1.1,0.8-1.6,1.1
				c-0.5,0.3-1.1,0.6-1.7,0.7s-1.1,0.3-1.7,0.4c-0.6,0.1-1.1,0.1-1.7,0.1c-0.7,0-1.4-0.1-2.1-0.2c-0.7-0.2-1.3-0.4-1.9-0.7
				c-0.6-0.3-1.1-0.7-1.6-1.1c-0.5-0.4-0.9-0.9-1.2-1.4c-0.3-0.5-0.6-1.1-0.8-1.7c-0.2-0.6-0.3-1.3-0.3-2c0-0.7,0.1-1.3,0.3-2
				c0.2-0.7,0.4-1.3,0.8-1.9s0.8-1.2,1.3-1.7c0.5-0.5,1.1-1,1.8-1.4s1.5-0.7,2.3-0.9C271,155.8,271.9,155.7,273,155.7z"/>
			<path fill="#58595B" d="M279.8,166.9c0-0.4,0.1-0.9,0.2-1.3c0.1-0.4,0.3-0.9,0.5-1.3c0.2-0.4,0.5-0.8,0.8-1.2
				c0.3-0.4,0.7-0.7,1.1-0.9c0.4-0.3,0.9-0.5,1.4-0.6c0.5-0.2,1.1-0.2,1.7-0.2c0.7,0,1.3,0.1,1.9,0.3s1,0.5,1.4,0.9
				c0.4,0.4,0.6,0.8,0.8,1.3s0.3,1,0.3,1.5c0,0.4-0.1,0.9-0.2,1.3s-0.3,0.9-0.5,1.3c-0.2,0.4-0.5,0.8-0.8,1.2
				c-0.3,0.4-0.7,0.7-1.1,0.9c-0.4,0.3-0.9,0.5-1.4,0.6c-0.5,0.2-1.1,0.2-1.7,0.2c-0.7,0-1.3-0.1-1.9-0.3s-1-0.5-1.4-0.9
				c-0.4-0.4-0.6-0.8-0.8-1.3S279.8,167.4,279.8,166.9z M281.8,166.3c0,0.3,0,0.6,0.1,0.9s0.1,0.6,0.3,0.9c0.1,0.3,0.3,0.5,0.4,0.8
				c0.2,0.2,0.4,0.4,0.6,0.6c0.2,0.2,0.5,0.3,0.8,0.4c0.3,0.1,0.6,0.2,1,0.2c0.4,0,0.8-0.1,1.1-0.2c0.3-0.1,0.6-0.3,0.8-0.5
				s0.4-0.5,0.6-0.8c0.1-0.3,0.3-0.6,0.4-0.9s0.1-0.6,0.2-0.9c0-0.3,0.1-0.6,0.1-0.8c0-0.3,0-0.6-0.1-0.9s-0.1-0.6-0.3-0.9
				c-0.1-0.3-0.3-0.5-0.4-0.8c-0.2-0.2-0.4-0.4-0.6-0.6c-0.2-0.2-0.5-0.3-0.8-0.4s-0.6-0.2-1-0.2c-0.4,0-0.8,0.1-1.1,0.2
				c-0.3,0.1-0.6,0.3-0.8,0.5c-0.2,0.2-0.4,0.5-0.6,0.8s-0.3,0.6-0.4,0.9s-0.1,0.6-0.2,0.9C281.8,165.8,281.8,166.1,281.8,166.3z"/>
			<path fill="#58595B" d="M293.1,170.7l-0.1,0c0-0.4,0.1-0.8,0.1-1.3s0.1-1,0.1-1.4c0-0.5,0.1-1,0.1-1.5c0-0.5,0-0.9,0.1-1.3
				c0-0.4,0-0.8,0-1.1s0-0.6,0-0.8c0-0.2,0-0.3,0-0.4c0-0.1-0.1-0.2-0.1-0.3s-0.1-0.1-0.3-0.2s-0.3-0.1-0.4-0.1c-0.1,0-0.2,0-0.3,0
				c-0.1,0-0.2,0-0.3,0c-0.1,0-0.3,0-0.4,0.1s-0.3,0.1-0.5,0.1l-0.1-0.5c0.9-0.3,1.6-0.4,2.2-0.5c0.6-0.1,0.9-0.2,1.1-0.2
				c0.4,0,0.6,0.1,0.8,0.2c0.2,0.2,0.2,0.4,0.2,0.7c0,0,0,0.1,0,0.3c0,0.1,0,0.3,0,0.6s0,0.5-0.1,0.8c0,0.3-0.1,0.6-0.1,1
				c0,0.3-0.1,0.7-0.1,1.1s-0.1,0.8-0.1,1.1l0.1,0c0.3-0.8,0.6-1.6,0.9-2.3c0.3-0.7,0.7-1.3,1.1-1.9c0.4-0.5,0.9-0.9,1.4-1.2
				s1-0.5,1.6-0.5c0.2,0,0.4,0,0.6,0.1s0.3,0.1,0.5,0.2s0.2,0.2,0.3,0.3c0.1,0.1,0.1,0.3,0.1,0.4c0,0.2-0.1,0.4-0.2,0.5
				s-0.3,0.3-0.5,0.5h-0.1c-0.2-0.1-0.4-0.3-0.7-0.3c-0.2-0.1-0.4-0.1-0.7-0.1c-0.2,0-0.5,0-0.7,0.1c-0.2,0.1-0.4,0.2-0.6,0.3
				c-0.3,0.2-0.6,0.5-0.9,0.9c-0.3,0.4-0.5,0.8-0.7,1.2c-0.2,0.4-0.4,0.9-0.6,1.4c-0.2,0.5-0.3,1-0.5,1.4c-0.1,0.5-0.2,0.9-0.3,1.3
				c-0.1,0.4-0.1,0.7-0.2,1L293.1,170.7z"/>
			<path fill="#58595B" d="M304.4,166.5c0.4-0.8,0.9-1.6,1.4-2.2c0.5-0.6,1-1.2,1.5-1.6c0.5-0.4,1-0.8,1.6-1s1-0.3,1.5-0.3
				c0.4,0,0.7,0.1,1,0.2c0.3,0.1,0.5,0.3,0.7,0.4s0.4,0.4,0.5,0.6c0.1,0.2,0.3,0.5,0.3,0.7s0.2,0.5,0.2,0.8c0,0.3,0.1,0.5,0.1,0.7
				c0,0.6-0.1,1.2-0.2,1.7c-0.2,0.5-0.4,1-0.7,1.5c-0.3,0.5-0.6,0.9-1,1.2c-0.4,0.4-0.8,0.7-1.3,0.9s-0.9,0.4-1.4,0.6
				s-1,0.2-1.5,0.2c-0.5,0-1.1-0.1-1.6-0.2c-0.5-0.1-1-0.4-1.4-0.7c-0.1,1.1-0.1,2.2-0.2,3.3s-0.1,2.3-0.1,3.5L302,177l-0.2,0
				c0.1-0.8,0.2-1.6,0.2-2.5s0.1-1.8,0.2-2.7s0.1-1.8,0.2-2.7c0-0.9,0.1-1.8,0.1-2.6c0-0.8,0.1-1.6,0.1-2.4c0-0.8,0-1.5,0-2.1
				c0-0.1,0-0.2,0.1-0.3c0.1-0.1,0.2-0.1,0.3-0.2c0.1,0,0.2-0.1,0.3-0.1c0.1,0,0.2,0,0.3,0c0.1,0,0.3,0,0.5,0s0.4,0.1,0.6,0.2
				c-0.1,0.5-0.2,1-0.2,1.4s-0.1,0.9-0.1,1.3c0,0.4-0.1,0.8-0.1,1.2C304.3,165.9,304.3,166.2,304.4,166.5L304.4,166.5z M304.1,169.3
				c0.5,0.3,0.9,0.5,1.4,0.7c0.5,0.1,0.9,0.2,1.4,0.2c0.6,0,1.2-0.1,1.7-0.3c0.5-0.2,1-0.5,1.3-0.9c0.4-0.4,0.7-0.9,0.9-1.5
				s0.3-1.3,0.3-2c0-0.3,0-0.6-0.1-0.9c-0.1-0.3-0.1-0.6-0.3-0.8c-0.1-0.2-0.3-0.5-0.5-0.6c-0.2-0.2-0.4-0.2-0.7-0.2
				c-0.3,0-0.7,0.1-1,0.2c-0.3,0.1-0.6,0.3-1,0.5s-0.6,0.5-0.9,0.8c-0.3,0.3-0.6,0.6-0.8,1c-0.3,0.3-0.5,0.7-0.7,1.1
				c-0.2,0.4-0.4,0.7-0.5,1.1c-0.2,0.3-0.3,0.7-0.4,1C304.2,168.8,304.2,169,304.1,169.3z"/>
			<path fill="#58595B" d="M315,166.9c0-0.4,0.1-0.9,0.2-1.3c0.1-0.4,0.3-0.9,0.5-1.3c0.2-0.4,0.5-0.8,0.8-1.2
				c0.3-0.4,0.7-0.7,1.1-0.9c0.4-0.3,0.9-0.5,1.4-0.6c0.5-0.2,1.1-0.2,1.7-0.2c0.7,0,1.3,0.1,1.9,0.3s1,0.5,1.4,0.9
				c0.4,0.4,0.6,0.8,0.8,1.3s0.3,1,0.3,1.5c0,0.4-0.1,0.9-0.2,1.3s-0.3,0.9-0.5,1.3c-0.2,0.4-0.5,0.8-0.8,1.2
				c-0.3,0.4-0.7,0.7-1.1,0.9c-0.4,0.3-0.9,0.5-1.4,0.6c-0.5,0.2-1.1,0.2-1.7,0.2c-0.7,0-1.3-0.1-1.9-0.3s-1-0.5-1.4-0.9
				c-0.4-0.4-0.6-0.8-0.8-1.3S315,167.4,315,166.9z M317,166.3c0,0.3,0,0.6,0.1,0.9s0.1,0.6,0.3,0.9c0.1,0.3,0.3,0.5,0.4,0.8
				c0.2,0.2,0.4,0.4,0.6,0.6c0.2,0.2,0.5,0.3,0.8,0.4c0.3,0.1,0.6,0.2,1,0.2c0.4,0,0.8-0.1,1.1-0.2c0.3-0.1,0.6-0.3,0.8-0.5
				s0.4-0.5,0.6-0.8c0.1-0.3,0.3-0.6,0.4-0.9s0.1-0.6,0.2-0.9c0-0.3,0.1-0.6,0.1-0.8c0-0.3,0-0.6-0.1-0.9s-0.1-0.6-0.3-0.9
				c-0.1-0.3-0.3-0.5-0.4-0.8c-0.2-0.2-0.4-0.4-0.6-0.6c-0.2-0.2-0.5-0.3-0.8-0.4s-0.6-0.2-1-0.2c-0.4,0-0.8,0.1-1.1,0.2
				c-0.3,0.1-0.6,0.3-0.8,0.5c-0.2,0.2-0.4,0.5-0.6,0.8s-0.3,0.6-0.4,0.9s-0.1,0.6-0.2,0.9C317,165.8,317,166.1,317,166.3z"/>
			<path fill="#58595B" d="M328.3,170.7l-0.1,0c0-0.4,0.1-0.8,0.1-1.3s0.1-1,0.1-1.4c0-0.5,0.1-1,0.1-1.5c0-0.5,0-0.9,0.1-1.3
				c0-0.4,0-0.8,0-1.1s0-0.6,0-0.8c0-0.2,0-0.3,0-0.4c0-0.1-0.1-0.2-0.1-0.3s-0.1-0.1-0.3-0.2s-0.3-0.1-0.4-0.1c-0.1,0-0.2,0-0.3,0
				c-0.1,0-0.2,0-0.3,0c-0.1,0-0.3,0-0.4,0.1s-0.3,0.1-0.5,0.1l-0.1-0.5c0.9-0.3,1.6-0.4,2.2-0.5c0.6-0.1,0.9-0.2,1.1-0.2
				c0.4,0,0.6,0.1,0.8,0.2c0.2,0.2,0.2,0.4,0.2,0.7c0,0,0,0.1,0,0.3c0,0.1,0,0.3,0,0.6s0,0.5-0.1,0.8c0,0.3-0.1,0.6-0.1,1
				c0,0.3-0.1,0.7-0.1,1.1s-0.1,0.8-0.1,1.1l0.1,0c0.3-0.8,0.6-1.6,0.9-2.3c0.3-0.7,0.7-1.3,1.1-1.9c0.4-0.5,0.9-0.9,1.4-1.2
				s1-0.5,1.6-0.5c0.2,0,0.4,0,0.6,0.1s0.3,0.1,0.5,0.2s0.2,0.2,0.3,0.3c0.1,0.1,0.1,0.3,0.1,0.4c0,0.2-0.1,0.4-0.2,0.5
				s-0.3,0.3-0.5,0.5h-0.1c-0.2-0.1-0.4-0.3-0.7-0.3c-0.2-0.1-0.4-0.1-0.7-0.1c-0.2,0-0.5,0-0.7,0.1c-0.2,0.1-0.4,0.2-0.6,0.3
				c-0.3,0.2-0.6,0.5-0.9,0.9c-0.3,0.4-0.5,0.8-0.7,1.2c-0.2,0.4-0.4,0.9-0.6,1.4c-0.2,0.5-0.3,1-0.5,1.4c-0.1,0.5-0.2,0.9-0.3,1.3
				c-0.1,0.4-0.1,0.7-0.2,1L328.3,170.7z"/>
			<path fill="#58595B" d="M343.5,164.1c0-0.3-0.1-0.6-0.2-0.9c-0.1-0.2-0.3-0.4-0.6-0.6s-0.5-0.3-0.8-0.3s-0.6-0.1-0.9-0.1
				c-0.4,0-0.7,0-1,0.1s-0.5,0.2-0.7,0.3c-0.2,0.1-0.3,0.2-0.4,0.4c-0.1,0.2-0.1,0.3-0.1,0.5c0,0.2,0,0.4,0.1,0.6s0.2,0.4,0.4,0.6
				l0,0.1c-0.3,0.1-0.6,0.2-0.9,0.2c-0.2,0-0.4,0-0.5-0.1c-0.2,0-0.3-0.1-0.4-0.2c-0.1-0.1-0.2-0.2-0.3-0.3
				c-0.1-0.1-0.1-0.3-0.1-0.4c0-0.2,0.1-0.5,0.2-0.7c0.2-0.2,0.4-0.4,0.6-0.6c0.3-0.2,0.6-0.3,0.9-0.5c0.3-0.1,0.7-0.3,1.1-0.4
				s0.7-0.2,1.1-0.2s0.7-0.1,1-0.1c0.6,0,1.1,0.1,1.5,0.2c0.4,0.1,0.7,0.3,1,0.5c0.3,0.2,0.4,0.5,0.6,0.8c0.1,0.3,0.2,0.7,0.2,1.1
				c0,0.3,0,0.6,0,0.9c0,0.3-0.1,0.7-0.1,1c0,0.4-0.1,0.7-0.1,1.1c0,0.4,0,0.8,0,1.2c0,0.6,0.1,1.1,0.4,1.4c0.3,0.3,0.7,0.5,1.2,0.5
				c0.4,0,0.9-0.1,1.4-0.4l0.2,0.3c-0.4,0.3-0.8,0.5-1.2,0.6c-0.4,0.1-0.9,0.2-1.4,0.2c-0.4,0-0.7,0-1-0.1c-0.3-0.1-0.6-0.2-0.8-0.4
				c-0.2-0.2-0.4-0.4-0.5-0.7c-0.1-0.3-0.2-0.6-0.2-1c0-0.1,0-0.2,0-0.3c0-0.1,0-0.2,0.1-0.3h0c-0.2,0.4-0.5,0.7-0.8,1.1
				c-0.3,0.4-0.7,0.7-1,0.9s-0.8,0.5-1.2,0.7c-0.4,0.2-0.9,0.3-1.3,0.3c-0.4,0-0.7-0.1-1-0.2c-0.3-0.1-0.6-0.2-0.8-0.4
				c-0.2-0.2-0.4-0.4-0.5-0.6s-0.2-0.5-0.2-0.8c0-0.4,0.1-0.7,0.3-1c0.2-0.3,0.4-0.6,0.7-0.8c0.3-0.2,0.7-0.4,1.1-0.6
				c0.4-0.2,0.9-0.3,1.4-0.4c0.5-0.1,1.1-0.2,1.6-0.3c0.6-0.1,1.2-0.1,1.8-0.1c0-0.3,0.1-0.5,0.1-0.8
				C343.5,164.6,343.5,164.4,343.5,164.1z M338.5,168.4c0,0.2,0,0.3,0.1,0.5c0,0.2,0.1,0.3,0.2,0.4c0.1,0.1,0.2,0.2,0.4,0.3
				c0.2,0.1,0.3,0.1,0.6,0.1c0.2,0,0.5,0,0.8-0.1c0.3-0.1,0.5-0.2,0.8-0.4c0.3-0.2,0.5-0.3,0.7-0.6s0.4-0.5,0.6-0.7
				c0.2-0.3,0.3-0.5,0.5-0.8c0.1-0.3,0.2-0.6,0.2-0.9c-0.4,0-0.8,0-1.2,0.1c-0.4,0-0.8,0.1-1.1,0.1c-0.4,0.1-0.7,0.2-1,0.3
				s-0.6,0.2-0.8,0.4c-0.2,0.2-0.4,0.4-0.5,0.6C338.5,167.9,338.5,168.1,338.5,168.4z"/>
			<path fill="#58595B" d="M353,156.9c-0.2,0.8-0.4,1.6-0.6,2.5c-0.2,0.9-0.3,1.7-0.4,2.5c0.3,0,0.5,0,0.8,0c0.2,0,0.5,0,0.7,0
				c0.2,0,0.4,0,0.6,0c0.2,0,0.3,0,0.4,0c0.5,0,0.9,0,1.2-0.1c0,0.1,0,0.1,0.1,0.2c0,0.1,0,0.1,0,0.2c0,0.2-0.1,0.3-0.3,0.4
				c-0.2,0.1-0.5,0.1-0.9,0.1c-0.4,0-0.8,0-1.2-0.1c-0.4,0-0.9-0.1-1.5-0.1c-0.1,0.5-0.1,0.9-0.2,1.3c0,0.4-0.1,0.8-0.1,1.2
				s0,0.7-0.1,1.1c0,0.3,0,0.6,0,0.9c0,0.5,0,0.9,0.1,1.2s0.2,0.7,0.3,0.9c0.2,0.2,0.4,0.4,0.6,0.6c0.3,0.1,0.6,0.2,1,0.2
				c0.3,0,0.6,0,1-0.1c0.4-0.1,0.8-0.2,1.2-0.4c0.1,0.1,0.2,0.3,0.3,0.4c-0.3,0.2-0.7,0.3-1,0.5c-0.3,0.1-0.7,0.3-1,0.4
				c-0.3,0.1-0.7,0.2-1,0.2c-0.3,0.1-0.6,0.1-0.9,0.1c-0.4,0-0.7-0.1-1-0.2s-0.6-0.3-0.8-0.6c-0.2-0.3-0.4-0.6-0.5-1.1
				c-0.1-0.4-0.2-1-0.2-1.7c0-0.4,0-0.8,0-1.2c0-0.4,0-0.8,0.1-1.2c0-0.4,0.1-0.8,0.1-1.3c0-0.4,0.1-0.8,0.1-1.2c-0.4,0-0.8,0-1.2,0
				s-0.7,0.1-1,0.1c0,0,0-0.1,0-0.1c0-0.1,0.1-0.2,0.2-0.3c0.1-0.1,0.3-0.1,0.5-0.2c0.2-0.1,0.4-0.1,0.7-0.2c0.3,0,0.6-0.1,0.9-0.1
				c0.1-0.9,0.3-1.7,0.4-2.5c0.1-0.8,0.3-1.5,0.4-2.1c0-0.1,0.1-0.2,0.2-0.3s0.2-0.1,0.3-0.2c0.1,0,0.2-0.1,0.3-0.1
				c0.1,0,0.2,0,0.3,0c0.2,0,0.3,0,0.5,0S352.8,156.8,353,156.9z"/>
			<path fill="#58595B" d="M360.1,161.7c-0.1,0.5-0.2,1-0.2,1.5s-0.1,1-0.2,1.4c0,0.5-0.1,0.9-0.1,1.3c0,0.4,0,0.8,0,1.1
				c0,0.4,0,0.8,0,1.1s0,0.6,0.1,0.8c0,0.2,0.1,0.4,0.1,0.5s0.1,0.2,0.2,0.3c0.1,0.1,0.2,0.1,0.3,0.1c0.1,0,0.2,0,0.4,0
				c0.3,0,0.5,0,0.9-0.1c0.3-0.1,0.6-0.1,0.9-0.3l0.2,0.3c-0.2,0.1-0.4,0.2-0.7,0.4s-0.6,0.2-0.9,0.3c-0.3,0.1-0.7,0.2-1,0.3
				c-0.3,0.1-0.6,0.1-0.8,0.1c-0.2,0-0.3,0-0.4,0c-0.1,0-0.2-0.1-0.3-0.1s-0.2-0.2-0.3-0.3s-0.1-0.3-0.2-0.6s-0.1-0.6-0.1-1
				s0-0.8,0-1.4c0-0.3,0-0.7,0-1.1c0-0.4,0-0.8,0-1.3s0-0.9,0.1-1.5s0.1-1,0.1-1.6c0-0.1,0.1-0.2,0.1-0.3c0.1-0.1,0.2-0.1,0.3-0.2
				c0.1,0,0.2-0.1,0.3-0.1c0.1,0,0.2,0,0.3,0C359.5,161.5,359.8,161.5,360.1,161.7z M359.4,158.8c-0.2,0-0.4,0-0.5-0.1
				s-0.3-0.1-0.4-0.2c-0.1-0.1-0.2-0.2-0.2-0.3c-0.1-0.1-0.1-0.3-0.1-0.4c0-0.2,0-0.4,0.1-0.5c0.1-0.1,0.2-0.3,0.3-0.4
				s0.3-0.2,0.4-0.2s0.3-0.1,0.5-0.1c0.2,0,0.4,0,0.5,0.1c0.1,0.1,0.3,0.1,0.4,0.2c0.1,0.1,0.2,0.2,0.2,0.3c0.1,0.1,0.1,0.2,0.1,0.4
				c0,0.1,0,0.3-0.1,0.4c-0.1,0.1-0.2,0.3-0.3,0.4c-0.1,0.1-0.3,0.2-0.4,0.3S359.6,158.8,359.4,158.8z"/>
			<path fill="#58595B" d="M363.3,166.9c0-0.4,0.1-0.9,0.2-1.3c0.1-0.4,0.3-0.9,0.5-1.3c0.2-0.4,0.5-0.8,0.8-1.2
				c0.3-0.4,0.7-0.7,1.1-0.9c0.4-0.3,0.9-0.5,1.4-0.6c0.5-0.2,1.1-0.2,1.7-0.2c0.7,0,1.3,0.1,1.9,0.3s1,0.5,1.4,0.9
				c0.4,0.4,0.6,0.8,0.8,1.3s0.3,1,0.3,1.5c0,0.4-0.1,0.9-0.2,1.3s-0.3,0.9-0.5,1.3c-0.2,0.4-0.5,0.8-0.8,1.2
				c-0.3,0.4-0.7,0.7-1.1,0.9c-0.4,0.3-0.9,0.5-1.4,0.6c-0.5,0.2-1.1,0.2-1.7,0.2c-0.7,0-1.3-0.1-1.9-0.3s-1-0.5-1.4-0.9
				c-0.4-0.4-0.6-0.8-0.8-1.3S363.3,167.4,363.3,166.9z M365.3,166.3c0,0.3,0,0.6,0.1,0.9s0.1,0.6,0.3,0.9c0.1,0.3,0.3,0.5,0.4,0.8
				c0.2,0.2,0.4,0.4,0.6,0.6c0.2,0.2,0.5,0.3,0.8,0.4c0.3,0.1,0.6,0.2,1,0.2c0.4,0,0.8-0.1,1.1-0.2c0.3-0.1,0.6-0.3,0.8-0.5
				s0.4-0.5,0.6-0.8c0.1-0.3,0.3-0.6,0.4-0.9s0.1-0.6,0.2-0.9c0-0.3,0.1-0.6,0.1-0.8c0-0.3,0-0.6-0.1-0.9s-0.1-0.6-0.3-0.9
				c-0.1-0.3-0.3-0.5-0.4-0.8c-0.2-0.2-0.4-0.4-0.6-0.6c-0.2-0.2-0.5-0.3-0.8-0.4s-0.6-0.2-1-0.2c-0.4,0-0.8,0.1-1.1,0.2
				c-0.3,0.1-0.6,0.3-0.8,0.5c-0.2,0.2-0.4,0.5-0.6,0.8s-0.3,0.6-0.4,0.9s-0.1,0.6-0.2,0.9C365.3,165.8,365.3,166.1,365.3,166.3z"/>
			<path fill="#58595B" d="M376.9,163.3c0-0.2,0-0.3,0-0.4c0-0.1-0.1-0.2-0.2-0.3c-0.1-0.1-0.2-0.1-0.3-0.1c-0.1,0-0.2,0-0.4,0
				c-0.2,0-0.4,0-0.7,0.1c-0.3,0-0.6,0.1-0.9,0.2l-0.1-0.5c0.4-0.1,0.8-0.2,1.1-0.3c0.4-0.1,0.7-0.2,1-0.2c0.3-0.1,0.6-0.1,0.8-0.1
				c0.2,0,0.4-0.1,0.5-0.1c0.3,0,0.6,0.1,0.7,0.2c0.2,0.1,0.3,0.4,0.3,0.8c0,0,0,0.1,0,0.3c0,0.2,0,0.4,0,0.6c0,0.2,0,0.5-0.1,0.8
				c0,0.3-0.1,0.6-0.1,1c0,0.3-0.1,0.7-0.1,1.1s-0.1,0.7-0.1,1.1l0,0c0.4-1.1,0.9-2,1.3-2.8c0.5-0.8,1-1.4,1.5-1.8s1-0.8,1.5-1
				c0.5-0.2,1-0.3,1.4-0.3c0.3,0,0.6,0,0.9,0.1s0.5,0.2,0.8,0.4c0.2,0.2,0.4,0.4,0.5,0.8s0.2,0.7,0.2,1.1c0,0.1,0,0.3,0,0.5
				c0,0.2,0,0.5-0.1,0.7s-0.1,0.5-0.1,0.8s-0.1,0.6-0.1,0.9s-0.1,0.6-0.1,0.8c0,0.3,0,0.5,0,0.7c0,0.3,0,0.6,0.1,0.8
				s0.1,0.4,0.2,0.5c0.1,0.1,0.2,0.2,0.3,0.2c0.1,0,0.3,0.1,0.5,0.1c0.3,0,0.6,0,0.9-0.1c0.3-0.1,0.6-0.1,0.9-0.3l0.2,0.3
				c-0.2,0.1-0.4,0.2-0.8,0.4c-0.3,0.1-0.6,0.2-1,0.3c-0.3,0.1-0.7,0.2-1,0.3c-0.3,0.1-0.6,0.1-0.9,0.1c-0.3,0-0.5-0.1-0.7-0.2
				c-0.2-0.1-0.3-0.3-0.4-0.5c-0.1-0.2-0.1-0.5-0.2-0.7c0-0.3,0-0.6,0-0.9c0-0.4,0-0.8,0.1-1.2s0.1-0.8,0.1-1.2s0.1-0.7,0.1-1
				c0-0.3,0.1-0.6,0.1-0.7c0-0.5-0.1-0.9-0.4-1.1c-0.2-0.2-0.6-0.4-1-0.4c-0.3,0-0.7,0.1-1,0.3s-0.7,0.5-1.1,0.9
				c-0.3,0.4-0.7,0.8-1,1.3s-0.6,1-0.9,1.6c-0.3,0.6-0.5,1.2-0.6,1.8c-0.2,0.6-0.3,1.3-0.3,1.9l-1.7,0.2l-0.1,0
				c0-0.4,0.1-0.8,0.1-1.3s0.1-1,0.1-1.4c0-0.5,0.1-1,0.1-1.5c0-0.5,0-0.9,0.1-1.3c0-0.4,0-0.8,0-1.1S376.9,163.5,376.9,163.3z"/>
		</g>
	</g>
</g>
<g id="Legal">
</g>
</svg>
